<svg xmlns="http://www.w3.org/2000/svg" viewBox="0 0 1100 899"><path fill="#EF4323" fill-rule="evenodd" d="M 824.455 2.455 C 821.667 5.242, 821.298 7, 823.500 7 C 824.325 7, 825 7.675, 825 8.500 C 825 11.263, 821.242 13.844, 816.322 14.459 C 813.670 14.790, 810.102 15.234, 808.394 15.444 C 805.651 15.783, 805.083 15.399, 803.536 12.164 L 801.783 8.500 800.141 10.837 C 795.967 16.781, 790.802 21.818, 782.502 28.038 C 777.551 31.748, 771.955 36.402, 770.066 38.379 L 766.632 41.975 762.238 39.399 C 757.169 36.429, 756.123 36.733, 758.569 40.465 C 761.313 44.653, 758.851 46.189, 755.121 42.616 C 751.600 39.243, 746.406 39.172, 746.642 42.500 C 747.266 51.306, 748.893 53.746, 753.389 52.617 C 755.573 52.069, 760 54.280, 760 55.919 C 760 56.652, 756.796 57.494, 744.099 60.094 C 738.624 61.216, 733.443 59.922, 729.794 56.522 C 726.419 53.377, 727.300 53.115, 721.066 59.123 C 715.544 64.446, 705.760 69.641, 692.500 74.291 C 682.150 77.920, 677 80.336, 677 81.562 C 677 82.161, 675.821 83.742, 674.380 85.076 C 672.940 86.409, 670.651 89.240, 669.295 91.366 C 667.938 93.492, 665.967 95.457, 664.914 95.733 C 662.658 96.323, 662.609 97.172, 664.529 102.500 C 665.321 104.700, 665.977 106.663, 665.985 106.861 C 665.993 107.060, 664.538 106.952, 662.750 106.622 C 659.079 105.943, 653.402 107.234, 653.689 108.681 C 653.793 109.206, 652.668 109.463, 651.189 109.251 C 649.554 109.018, 646.540 109.928, 643.500 111.574 C 632.247 117.666, 627.217 119.837, 621.750 120.960 C 618.587 121.610, 616 122.309, 616 122.514 C 616 122.718, 616.956 124.506, 618.124 126.486 C 620.571 130.634, 620.276 131.436, 616.788 130.109 C 606.315 126.128, 584.650 136.315, 591.500 142 C 593.955 144.038, 593.249 145.300, 590.017 144.653 C 587.391 144.128, 587.062 144.319, 587.267 146.245 C 587.553 148.927, 583.292 150.570, 572.060 152.108 C 564.124 153.195, 560 155.047, 560 157.523 C 560 158.335, 560.875 159, 561.944 159 C 563.014 159, 565.151 160.126, 566.694 161.502 C 569.470 163.977, 569.478 164.022, 567.500 165.620 C 563.685 168.701, 552.199 173.515, 547.683 173.926 C 547.233 173.967, 547.151 174.900, 547.500 176 C 548.054 177.745, 547.680 178, 544.564 178 C 541.189 178, 541.006 178.169, 541.246 181.069 C 541.467 183.744, 540.950 184.451, 537.223 186.569 C 534.871 187.906, 531.608 189, 529.973 189 C 528.029 189, 527 189.507, 527 190.465 C 527 192.825, 523.582 194, 516.721 194 C 508.308 194, 505.552 196.291, 509.501 200.001 C 511.847 202.205, 512.855 205, 511.305 205 C 510.922 205, 509.336 203.780, 507.781 202.290 C 505.235 199.851, 504.650 199.694, 501.931 200.720 C 499.200 201.751, 498.590 201.579, 495.573 198.930 C 491.335 195.209, 491 195.251, 491 199.500 C 491 203.484, 490.098 203.871, 487.500 201 C 484.993 198.229, 484.272 198.495, 484.787 202 C 485.294 205.456, 484.515 205.638, 478.500 203.471 C 471.943 201.109, 469.004 202.241, 470.638 206.500 C 470.995 207.429, 470.634 208, 469.689 208 C 467.076 208, 465 206.846, 465 205.393 C 465 203.585, 464.802 203.614, 460.005 206.115 C 455.783 208.315, 453.952 210.613, 454.718 212.750 C 455.269 214.285, 457.700 214.401, 458.195 212.916 C 458.394 212.319, 460.054 211.728, 461.884 211.601 C 466.571 211.277, 467.543 213.816, 465.596 221.294 C 464.768 224.472, 464.316 227.660, 464.591 228.377 C 464.956 229.328, 463.845 229.701, 460.495 229.751 C 457.966 229.790, 454.297 230.580, 452.341 231.508 C 448.930 233.127, 445.493 233.135, 441.750 231.534 C 440.427 230.969, 440 231.260, 440 232.726 C 440 236.245, 438.618 236.141, 435.464 232.385 L 432.353 228.678 429.176 230.555 C 425.058 232.988, 425.043 232.940, 431.617 238.556 C 436.798 242.982, 437.094 243.458, 435.426 244.678 C 433.044 246.420, 427.483 246.354, 421.409 244.511 C 418.709 243.692, 414.782 243.017, 412.683 243.011 C 409.186 243.001, 408.923 243.189, 409.548 245.250 C 410.931 249.808, 410.441 250.617, 405.453 252.013 C 399.159 253.775, 396 256.469, 396 260.073 C 396 262.550, 396.395 263, 398.570 263 L 401.140 263 397.320 267.625 C 390.632 275.723, 388.202 278, 386.248 278 C 384.530 278, 384.707 277.240, 388.053 270.250 C 391.686 262.663, 394.345 254.012, 393.350 253.017 C 393.075 252.742, 392.416 253.292, 391.886 254.239 C 390.575 256.582, 383.756 260.283, 376.500 262.591 C 372.303 263.926, 369.223 265.769, 366.250 268.724 C 361.105 273.837, 361.067 274.252, 365.500 276.867 C 369.502 279.229, 370.036 280.997, 366.750 281.006 C 365.512 281.010, 363.186 281.698, 361.579 282.535 C 359.577 283.580, 358.335 283.735, 357.629 283.029 C 354.735 280.135, 354.563 281.794, 356.619 292.765 L 357.231 296.029 348.616 295.367 C 342.021 294.860, 340 294.999, 340 295.960 C 340 296.650, 338.665 300.011, 337.033 303.430 C 333.838 310.125, 328.269 314.302, 320.898 315.530 C 319.029 315.842, 315.942 316.427, 314.038 316.832 L 310.576 317.566 309.330 327.533 C 307.702 340.565, 307.363 343.492, 306.039 356 C 305.427 361.775, 304.294 371.675, 303.520 378 C 302.747 384.325, 301.626 394.225, 301.031 400 C 300.435 405.775, 299.430 414.658, 298.797 419.740 C 297.500 430.156, 297.440 429.986, 302.667 430.669 C 310.591 431.705, 314.871 427.536, 309 424.500 C 306.052 422.975, 305.248 421.583, 306.772 420.641 C 307.197 420.378, 310.195 421.946, 313.435 424.124 C 319.671 428.315, 321.601 428.619, 323.393 425.691 C 324.268 424.262, 324.133 423.610, 322.750 422.581 C 320.403 420.836, 320.533 419.645, 323 420.290 C 324.733 420.743, 325 420.320, 325 417.119 C 325 414.009, 325.791 412.646, 330 408.500 C 334.965 403.609, 335 403.531, 335 397.181 C 335 391.499, 335.195 390.862, 336.750 391.463 C 354.956 398.508, 365.734 387.249, 349.535 378.106 C 342.240 373.989, 342.229 372.048, 349.500 371.850 C 352.525 371.767, 355.552 371.655, 356.226 371.600 C 357.488 371.497, 357.854 372.410, 360.518 382.289 C 362.292 388.868, 364.866 392, 368.500 392 C 371.081 392, 371.446 391.327, 370.376 388.539 C 369.812 387.068, 369.590 387.061, 368.039 388.465 C 366.484 389.872, 366.170 389.845, 364.655 388.171 C 361.911 385.139, 363.456 380.335, 367.617 378.961 C 371.495 377.682, 371.606 377.038, 370.034 365 C 368.496 353.228, 366.223 333.531, 365.015 321.500 C 364.407 315.450, 363.740 309.075, 363.531 307.333 C 363.207 304.619, 363.678 303.803, 366.826 301.629 C 379.762 292.696, 391.182 295.136, 395.038 307.656 C 396.659 312.922, 397.381 329.578, 396.208 334.673 C 395.163 339.210, 396.015 341, 399.219 341 C 400.638 341, 400.906 340.474, 400.438 338.609 C 399.687 335.615, 401.826 334.041, 403.512 336.347 C 404.177 337.256, 405.443 338, 406.325 338 C 408.039 338, 410.336 334.670, 409.322 333.656 C 408.294 332.627, 411.058 330.085, 412.573 330.666 C 414.793 331.518, 414.262 329.883, 411.323 326.815 C 409.850 325.278, 408.838 323.839, 409.073 323.617 C 409.539 323.175, 419.128 325.070, 425.500 326.863 C 431.601 328.580, 441.482 328.329, 443.070 326.416 C 444.865 324.253, 443.187 321.772, 439.146 320.613 C 435.194 319.480, 435.064 318, 438.916 318 C 440.795 318, 444.558 316.132, 449.492 312.750 C 462.639 303.739, 468 301.284, 468 304.273 C 468 304.994, 470.076 307.590, 472.614 310.042 C 475.152 312.494, 477.878 316.011, 478.673 317.858 C 480.208 321.427, 479.748 323.148, 477.783 321.183 C 475.933 319.333, 473.263 319.788, 471.526 322.250 C 470.044 324.351, 470.080 324.616, 472.080 326.250 C 477.255 330.479, 482.784 327.767, 486.500 319.177 C 487.528 316.800, 489.299 314.100, 490.435 313.177 C 491.571 312.255, 493.759 309.565, 495.297 307.201 C 496.835 304.836, 498.748 302.650, 499.547 302.344 C 501.840 301.464, 501.267 300.498, 497.679 299.201 C 493.035 297.522, 489.947 297.704, 488.379 299.750 C 486.728 301.904, 485.048 300.040, 485.002 296 C 484.986 294.625, 484.709 292.518, 484.387 291.318 C 483.886 289.447, 484.123 289.219, 486.051 289.723 C 488.221 290.291, 488.276 290.137, 487.633 285.292 C 487.122 281.436, 487.316 279.983, 488.472 279.023 C 489.709 277.996, 490.094 278.105, 490.640 279.637 C 492.029 283.533, 499.818 289, 503.980 289 C 504.580 289, 506.149 289.707, 507.468 290.571 C 509.362 291.812, 510.314 291.902, 511.997 291.002 C 513.580 290.155, 515.460 290.148, 519.314 290.977 C 524.377 292.067, 524.553 292.027, 526.745 289.297 C 527.980 287.758, 528.992 286, 528.995 285.389 C 528.998 284.778, 531.016 282.113, 533.480 279.467 C 537.831 274.795, 538.253 272, 534.610 272 C 533.025 272, 526 267.131, 526 266.033 C 526 265.542, 527.013 264.995, 528.250 264.820 C 530.161 264.548, 530.482 263.924, 530.380 260.680 C 530.237 256.156, 529.494 255.249, 525.234 254.397 C 520.619 253.474, 520.201 255.769, 523.467 264.094 C 525.664 269.692, 525.959 271.344, 524.977 272.528 C 523.317 274.528, 522.215 274.388, 518.594 271.716 C 514.001 268.326, 510.395 267.002, 505.703 266.983 C 501.337 266.965, 500.676 266.119, 496.139 254.739 C 495.940 254.241, 497.156 254.546, 498.839 255.417 C 504.149 258.162, 507.565 257.482, 512.793 252.640 C 522.135 243.986, 524.886 243.867, 533.337 251.750 C 540.217 258.169, 543.025 260, 545.986 260 C 548.242 260, 548.591 262.028, 546.884 265.217 C 545.925 267.010, 546.010 267.210, 547.491 266.642 C 548.632 266.204, 550.371 266.996, 552.642 268.990 C 554.527 270.646, 556.504 272, 557.035 272 C 558.720 272, 558.078 270.295, 555.829 268.803 C 552.988 266.916, 554.232 265, 558.297 265 L 561.476 265 557.738 262.340 C 553.439 259.282, 553.324 258.922, 555.901 256.590 C 557.145 255.464, 558.029 255.238, 558.460 255.935 C 559.496 257.611, 561.005 257.177, 560.323 255.399 C 559.985 254.519, 560.337 253.394, 561.104 252.899 C 562.286 252.138, 562.271 251.853, 561.005 251.039 C 559.721 250.215, 559.792 249.871, 561.505 248.609 C 563.488 247.148, 563.486 247.113, 561.151 242.808 C 559.860 240.426, 558.920 237.808, 559.064 236.989 C 559.208 236.170, 558.973 234.242, 558.543 232.703 C 557.353 228.453, 558.565 228.349, 562.683 232.349 C 566.536 236.091, 572.162 238.450, 580 239.609 C 582.475 239.975, 585.400 240.747, 586.500 241.325 C 590.100 243.216, 600.328 243.296, 599.611 241.428 C 599.275 240.552, 599 238.399, 599 236.641 C 599 234.457, 597.709 231.728, 594.921 228.017 C 591.126 222.966, 590.965 222.498, 592.618 221.290 C 593.596 220.575, 595.319 220.270, 596.448 220.610 C 599.994 221.682, 600.509 221.550, 600.185 219.656 C 599.917 218.091, 600.323 217.912, 602.870 218.472 C 605.761 219.106, 605.883 218.990, 606.186 215.315 L 606.500 211.500 614.063 211.424 C 622.770 211.338, 625.405 210.385, 621.847 208.611 C 620.566 207.972, 619.380 206.734, 619.211 205.859 C 618.816 203.808, 622.770 203, 633.208 203 C 641.841 203, 643.962 200.995, 636.419 199.965 C 630.956 199.219, 630 198.388, 630 194.383 C 630 190.886, 630.001 190.885, 634.250 191.193 C 638.287 191.485, 638.567 191.713, 639.845 195.750 C 640.840 198.894, 641.713 200, 643.200 200 C 645.318 200, 645.474 195.142, 643.502 190.613 C 642.723 188.822, 643.125 188.754, 651.340 189.285 C 660.361 189.867, 661.773 189.208, 657.500 186.408 C 656.125 185.507, 655 184.105, 655 183.291 C 655 182.478, 654.082 181.573, 652.959 181.279 C 650.014 180.509, 650.992 178.989, 655.410 177.470 C 661.686 175.312, 661.742 174.358, 655.696 172.600 C 652.669 171.720, 649.640 171, 648.964 171 C 646.992 171, 648.489 163.371, 651.293 159.133 C 654.647 154.065, 661.821 150.572, 674.104 148.027 C 679.705 146.866, 685.093 145.485, 686.078 144.958 C 689.269 143.250, 691.215 143.730, 690.035 145.934 C 687.486 150.697, 690.342 157, 695.049 157 C 699.213 157, 709.727 152.152, 710.298 149.969 C 710.564 148.951, 712.506 147.304, 714.614 146.309 C 716.721 145.314, 718.915 143.557, 719.488 142.405 C 720.351 140.669, 720.918 140.484, 722.797 141.323 C 724.403 142.039, 725.406 141.994, 726.233 141.167 C 727.859 139.541, 726.331 138.301, 721.324 137.180 C 717.531 136.332, 716.950 136.473, 715 138.716 C 713.818 140.074, 713.106 141.440, 713.417 141.751 C 715.011 143.345, 711.287 145, 706.107 145 C 697.256 145, 682 135.464, 682 129.932 C 682 125.955, 685.335 124.786, 690.440 126.974 C 696.168 129.430, 706.725 129.710, 710.961 127.520 C 716.053 124.887, 718 121.386, 718 114.865 C 718 111.639, 718.369 109, 718.820 109 C 719.618 109, 725.951 114.107, 731 118.821 C 734.186 121.796, 737.748 123.215, 740.132 122.458 C 742.803 121.610, 742.448 120.377, 738.937 118.307 C 736.277 116.738, 735.951 116.089, 736.458 113.378 L 737.042 110.257 727.021 106.908 C 717.073 103.584, 717 103.536, 717 100.315 C 717 95.491, 719.452 94.597, 727.545 96.474 C 731.163 97.313, 736.009 97.952, 738.312 97.894 C 742.379 97.790, 742.421 97.756, 739.750 96.701 C 736.061 95.243, 736.277 94.410, 740.960 92.020 C 745.482 89.714, 755.826 89.226, 757.825 91.225 C 758.792 92.192, 759.464 92.192, 761.011 91.225 C 762.090 90.551, 765.679 90, 768.986 90 C 773.254 90, 775 89.623, 775 88.700 C 775 86.559, 772.781 85, 769.734 85 C 766.493 85, 763 83.418, 763 81.951 C 763 80.608, 769.206 75.066, 770.750 75.029 C 771.438 75.013, 772 73.965, 772 72.700 C 772 71.435, 772.563 69.830, 773.250 69.133 C 774.491 67.874, 772.753 65.759, 769.608 64.699 C 767.034 63.831, 774.810 57.763, 784 53.467 C 789.135 51.067, 796.044 49.234, 816.250 44.911 C 822.795 43.510, 822.669 43.666, 820 40.273 C 818.900 38.874, 818 37.116, 818 36.365 C 818 34.647, 817.994 34.647, 813.904 36.747 C 811.989 37.729, 808.313 38.489, 805.500 38.482 C 797.960 38.466, 790.663 34.045, 796.750 33.180 C 799.530 32.786, 799.609 31.861, 797 30.232 C 794.662 28.772, 794.424 26.723, 796.400 25.083 C 798.404 23.419, 806.660 25.591, 807.275 27.943 C 807.566 29.056, 809.477 30.134, 812.510 30.898 C 815.137 31.560, 819.215 33.428, 821.573 35.050 C 832.423 42.516, 839.412 34.513, 829.641 25.814 L 825.500 22.127 829.958 17.564 C 834.648 12.763, 835.847 12.247, 837.793 14.193 C 838.717 15.117, 838.513 15.889, 836.888 17.619 C 835.734 18.847, 835.089 20.335, 835.454 20.926 C 836.414 22.479, 839 22.246, 839 20.607 C 839 18.933, 841.151 18, 845.014 18 C 848.325 18, 848.661 14.493, 845.667 11.184 C 843.351 8.625, 843.586 5.550, 846.250 3.578 L 848.500 1.912 845.963 2.421 C 844.567 2.702, 840.967 2.277, 837.963 1.478 C 830.182 -0.593, 827.293 -0.384, 824.455 2.455 M 852.750 9.470 C 850.421 12.672, 850.480 12.820, 854.250 13.209 L 857.500 13.545 854 15.137 C 852.075 16.012, 848.444 19.012, 845.931 21.803 L 841.361 26.878 844.431 26.346 C 854.508 24.601, 864.552 18.695, 861.087 16.553 C 860.584 16.243, 859.194 13.966, 857.997 11.494 C 855.499 6.334, 855.133 6.193, 852.750 9.470 M 820.028 48.466 C 818.136 50.746, 819.257 52.601, 821.295 50.563 C 823.135 48.722, 823.535 47, 822.122 47 C 821.640 47, 820.697 47.660, 820.028 48.466 M 830 55.361 C 830 57.341, 830.404 57.645, 832.500 57.245 C 835.276 56.714, 835.586 55.986, 833.800 54.200 C 831.855 52.255, 830 52.822, 830 55.361 M 780.064 79.420 C 779.156 80.516, 778.996 81.400, 779.630 81.826 C 785.830 85.996, 788.293 87.091, 790.729 86.761 C 793.180 86.428, 792.954 86.234, 788.780 85.081 C 783.757 83.694, 782.429 82.642, 781.858 79.594 C 781.521 77.798, 781.417 77.788, 780.064 79.420 M 699 92.499 C 699 92.848, 700.164 94.659, 701.586 96.524 C 704.869 100.828, 703.985 102.395, 698.676 101.683 C 694.650 101.143, 691 102.232, 691 103.972 C 691 104.468, 692.417 105.014, 694.149 105.187 C 698.415 105.611, 700.007 108.230, 697.610 110.878 C 696.617 111.976, 696.124 113.392, 696.516 114.025 C 696.951 114.730, 698.050 113.555, 699.349 110.999 C 700.515 108.701, 703.422 105.022, 705.808 102.823 C 708.269 100.554, 709.921 98.236, 709.625 97.464 C 708.846 95.436, 699 90.835, 699 92.499 M 713.064 129.724 C 711.462 130.356, 704 137.516, 704 138.422 C 704 138.740, 705.350 139, 707 139 C 708.961 139, 710 138.495, 710 137.542 C 710 136.740, 712.025 134.898, 714.500 133.447 C 720.011 130.217, 718.929 127.411, 713.064 129.724 M 627.223 135.557 C 625.111 137.035, 624.085 141, 625.813 141 C 626.786 141, 632 135.687, 632 134.695 C 632 133.493, 629.534 133.937, 627.223 135.557 M 590.250 154.662 C 589.563 154.940, 589 155.579, 589 156.083 C 589 157.534, 591.631 157.150, 593 155.500 C 594.312 153.919, 593.047 153.534, 590.250 154.662 M 578.655 165 C 577.246 168.191, 577.254 168.610, 578.746 169.750 C 580.151 170.823, 583.031 171.503, 582.985 170.750 C 582.976 170.613, 582.346 168.475, 581.585 166 L 580.200 161.500 578.655 165 M 682.503 183.991 C 681.423 187.392, 682.909 188.201, 686.082 185.942 C 689.352 183.613, 689.118 182, 685.508 182 C 684.017 182, 682.900 182.740, 682.503 183.991 M 643 206.766 C 643 208.230, 648.773 213.242, 649.992 212.836 C 650.627 212.624, 649.313 210.979, 647.073 209.179 C 644.833 207.379, 643 206.293, 643 206.766 M 629.494 224.628 C 628.478 225.371, 627.918 226.252, 628.251 226.585 C 629.072 227.405, 635 226.046, 635 225.037 C 635 223.540, 631.353 223.269, 629.494 224.628 M 606.028 233.467 C 604.938 234.780, 605.143 235, 607.461 235 C 609.105 235, 610.011 234.534, 609.771 233.813 C 609.150 231.949, 607.420 231.789, 606.028 233.467 M 347.347 306.538 C 346.606 308.468, 349.601 313, 351.617 313 C 352.480 313, 353.452 311.988, 353.776 310.750 C 354.551 307.784, 354.608 307.875, 351.025 306.368 C 348.372 305.253, 347.831 305.278, 347.347 306.538 M 1068 314 C 1068 314.550, 1069.350 315, 1071 315 C 1072.650 315, 1074 314.550, 1074 314 C 1074 313.450, 1072.650 313, 1071 313 C 1069.350 313, 1068 313.450, 1068 314 M 345.250 319.099 C 342.626 320.075, 342.330 321.529, 344.582 322.393 C 347.699 323.589, 350 323.043, 350 321.107 C 350 318.761, 348.203 318.002, 345.250 319.099 M 1086.329 323.518 C 1081.310 328.755, 1080.988 330, 1084.654 330 C 1087.166 330, 1100 323.570, 1100 322.311 C 1100 320.954, 1096.294 319.061, 1093.579 319.032 C 1091.397 319.008, 1089.560 320.145, 1086.329 323.518 M 352 327.965 C 352 329.188, 355.972 331.361, 356.763 330.571 C 357.088 330.245, 356.487 329.323, 355.427 328.521 C 353.165 326.810, 352 326.621, 352 327.965 M 1037.512 331.582 L 1034.891 334.409 1037 336 L 1039.109 337.591 1036.676 340.216 C 1034.278 342.803, 1033.182 343.098, 1021.250 344.360 C 1017.399 344.767, 1017 344.603, 1017 342.605 C 1017 340.411, 1015.325 338, 1013.800 338 C 1013.360 338, 1013 338.645, 1013 339.433 C 1013 341.519, 1001.371 352.989, 994.449 357.730 C 991.177 359.971, 986.721 363.649, 984.547 365.903 C 980.078 370.535, 978.747 370.813, 974.500 368 C 970.344 365.247, 969.688 365.496, 971.559 369.115 C 973.954 373.746, 971.902 375.239, 968.121 371.616 C 964.289 367.944, 959.370 368.170, 959.744 372 C 960.680 381.609, 960.938 382, 966.359 382 C 970.210 382, 973 383.298, 973 385.089 C 973 385.467, 971.313 386.077, 969.250 386.443 C 967.188 386.810, 962.626 387.813, 959.114 388.672 C 951.618 390.507, 946.820 389.567, 943.016 385.517 C 939.919 382.221, 939.718 382.266, 935.065 387.314 C 930.492 392.274, 919.441 398.150, 904.651 403.484 C 892.845 407.742, 891 408.672, 891 410.366 C 891 411.079, 889.890 412.256, 888.533 412.983 C 886.076 414.297, 881 421.033, 881 422.979 C 881 423.992, 879.651 424.386, 877.250 424.075 C 875.623 423.863, 875.687 426.518, 877.428 431.500 L 878.826 435.500 872.663 436 C 868.139 436.367, 866.578 436.866, 866.792 437.875 C 867.004 438.877, 866.327 439.103, 864.292 438.709 C 862.217 438.307, 858.545 439.608, 850.002 443.772 C 841.823 447.759, 836.987 449.502, 833.252 449.812 C 827.321 450.304, 827.296 450.328, 829.899 453.122 C 832.491 455.905, 833.363 460.385, 831.122 459.411 C 826.400 457.360, 817.351 457.788, 812.425 460.296 C 805.537 463.801, 802.503 467.204, 803.914 469.840 C 805.452 472.712, 805.317 473, 802.433 473 C 800.336 473, 799.980 473.360, 800.488 474.963 C 801.323 477.593, 795.784 479.928, 787 480.648 C 778.677 481.330, 774.232 482.698, 773.028 484.949 C 771.921 487.017, 772.592 488, 775.111 488 C 777.428 488, 782.503 492.377, 781.697 493.681 C 780.923 494.933, 768.790 500.963, 765.938 501.512 C 760.920 502.478, 759.911 503.144, 760.526 505.081 C 761.049 506.728, 760.630 507, 757.567 507 C 753.862 507, 753.313 507.848, 754.990 510.981 C 756.166 513.178, 749.733 516.824, 743.113 517.712 C 740.354 518.082, 739.294 518.692, 739.380 519.862 C 739.477 521.180, 738.097 521.621, 732.228 522.147 C 728.104 522.517, 723.839 523.531, 722.377 524.489 L 719.797 526.179 722.576 529.079 C 725.977 532.629, 725.132 534.035, 721.374 531.080 C 719.190 529.361, 717.826 529.053, 714.568 529.542 C 711.063 530.068, 710.158 529.797, 708.101 527.607 C 705.265 524.588, 704 525.036, 704 529.059 C 704 531.955, 702.709 532.957, 701.500 531 C 700.382 529.191, 698 529.951, 698 532.117 C 698 533.728, 697.531 534.111, 696.035 533.719 C 694.508 533.320, 693.473 534.243, 691.396 537.853 C 687.264 545.035, 686.010 546.161, 682.906 545.479 C 679.632 544.760, 678.892 545.761, 678.819 551.006 C 678.789 553.203, 678.319 555, 677.775 555 C 677.231 555, 677.045 555.675, 677.362 556.500 C 677.804 557.653, 677.146 558, 674.515 558 C 671.985 558, 670.625 558.664, 669.297 560.547 C 668.309 561.948, 666.776 564.056, 665.892 565.231 L 664.283 567.368 661.507 565.184 C 659.980 563.983, 658.116 563, 657.365 563 C 655.788 563, 655.518 565.584, 657 566.500 C 657.550 566.840, 658 567.597, 658 568.181 C 658 568.906, 657.601 568.922, 656.750 568.232 C 653.065 565.247, 649.780 567.993, 645.937 577.271 C 643.959 582.048, 639.027 583.374, 634.433 580.364 C 632.060 578.809, 632.021 578.635, 633.644 576.840 C 635.797 574.462, 634.777 573.401, 629.127 572.136 C 623.297 570.831, 622.260 571.395, 622.391 575.803 C 622.496 579.364, 622.322 579.559, 617.658 581.106 C 611.549 583.133, 609 585.302, 609 588.471 C 609 590.300, 609.670 591.130, 611.522 591.595 L 614.045 592.228 610.058 596.864 C 603.225 604.810, 600.812 607, 598.886 607 C 597.216 607, 597.346 606.407, 600.146 601.250 C 603.075 595.854, 607.454 583, 606.363 583 C 606.090 583, 604.384 584.130, 602.573 585.512 C 600.762 586.894, 596.179 589.114, 592.390 590.447 C 576.736 595.951, 572.233 601.182, 579 606 C 582.744 608.666, 582.818 610, 579.223 610 C 577.695 610, 575.407 610.727, 574.138 611.616 C 572.441 612.805, 571.537 612.937, 570.716 612.116 C 567.750 609.150, 567.428 611.922, 569.579 621.906 L 570.312 625.312 564.906 624.655 C 561.933 624.294, 557.761 623.707, 555.635 623.350 C 552.045 622.747, 551.818 622.850, 552.435 624.794 C 554.363 630.870, 542.512 644, 535.099 644 C 534.009 644, 532.840 644.450, 532.500 645 C 532.160 645.550, 529.546 646.003, 526.691 646.007 C 521.290 646.014, 506.474 649.173, 502.682 651.126 C 498.898 653.075, 496.126 656.151, 495.472 659.126 C 495.125 660.707, 494.202 662, 493.421 662 C 492.404 662, 492 663.279, 492 666.500 C 492 668.975, 491.597 671, 491.104 671 C 490.158 671, 488.769 680.247, 486.974 698.500 C 486.378 704.550, 485.268 714.450, 484.507 720.500 C 480.247 754.338, 480.094 757.583, 482.832 755.873 C 486.134 753.810, 490.314 756.742, 491.579 762.008 C 492.489 765.799, 493.074 766.549, 495.329 766.816 C 498.358 767.175, 498.767 766.281, 496.373 764.531 C 495.035 763.553, 494.958 762.948, 495.934 761.123 C 497.640 757.935, 501.297 756.827, 506.299 757.982 C 508.610 758.515, 513.051 758.962, 516.168 758.976 C 525.796 759.017, 527.271 757.382, 521.759 752.777 C 516.905 748.721, 520.673 749.240, 527.163 753.521 C 532.897 757.304, 534.657 757.527, 536.393 754.691 C 537.268 753.262, 537.133 752.610, 535.750 751.581 C 533.257 749.727, 533.587 748.679, 536.438 749.395 C 538.719 749.968, 538.841 749.796, 538.343 746.724 C 537.872 743.824, 538.400 742.823, 542.877 738.129 C 548.412 732.326, 549.909 728.045, 548.159 723.025 C 546.942 719.535, 546.918 719.542, 553.409 721.511 C 563.328 724.520, 570 722.476, 570 716.429 C 570 712.599, 568.273 710.525, 561.116 705.760 C 555.953 702.322, 555.477 699.488, 560.250 700.596 C 563.556 701.364, 564.956 701.402, 568.475 700.824 C 570.152 700.549, 570.784 701.662, 572.665 708.204 C 575.785 719.051, 576.418 720, 580.535 720 C 584.177 720, 584.613 719.462, 582.966 717 C 582.096 715.698, 581.822 715.740, 580.891 717.323 C 579.874 719.053, 579.721 719.058, 577.909 717.418 C 574.564 714.390, 575.409 710.223, 579.750 708.345 C 581.813 707.453, 584.512 706.259, 585.748 705.693 C 588.447 704.458, 588.802 704.754, 590.519 709.676 L 591.853 713.500 593.517 709.500 C 599.084 696.126, 601.721 692, 604.706 692 C 605.452 692, 606.357 691.212, 606.716 690.250 C 607.075 689.288, 608.236 687.876, 609.298 687.114 C 611.151 685.782, 611.301 683.069, 609.857 677 C 609.475 675.395, 612.103 675.137, 615.250 676.472 C 617.774 677.542, 617.569 673.608, 614.907 669.869 C 612.880 667.023, 612.894 664, 614.933 664 C 615.481 664, 616.414 664.906, 617.007 666.013 C 618.599 668.989, 622 666.913, 622 662.965 C 622 660.170, 622.778 659.539, 625.750 659.925 C 627.697 660.178, 627.239 658.859, 624.323 655.815 C 620.744 652.079, 621.368 651.818, 629.540 653.634 C 633.368 654.485, 638.300 655.571, 640.500 656.047 C 647.319 657.523, 653.563 657.175, 656.026 655.180 L 658.273 653.360 655.502 651.180 C 653.977 649.981, 651.778 648.970, 650.615 648.932 C 648.685 648.871, 648.718 648.774, 651 647.831 C 652.375 647.263, 654.964 646.175, 656.752 645.414 C 658.541 644.653, 662.855 641.790, 666.338 639.053 C 673.283 633.595, 676.684 631.944, 679.046 632.885 C 681.325 633.792, 691.672 645.393, 692.484 647.950 C 693.328 650.609, 692.412 651.812, 690.783 650.183 C 689.039 648.439, 686.544 648.741, 684.557 650.937 C 682.402 653.318, 683.204 654.769, 687.717 656.655 C 692.383 658.605, 695.343 656.676, 698.598 649.567 C 701.870 642.420, 703.996 640.529, 706.570 642.476 C 709.398 644.615, 710.073 644.323, 708.975 641.435 C 707.274 636.961, 708.956 636.625, 713.114 640.609 L 715.837 643.218 718.479 639.033 C 722.576 632.542, 722.569 632.503, 716.798 630.102 C 709.836 627.206, 703.494 626.345, 701.472 628.024 C 699.364 629.772, 698.380 628.439, 697.665 622.867 C 697.155 618.897, 697.316 618.253, 698.785 618.367 C 700.210 618.477, 700.500 617.586, 700.500 613.097 C 700.500 606.827, 702.145 605.445, 704.405 609.816 C 705.885 612.679, 711.865 617, 714.346 617 C 715.023 617, 717.186 617.820, 719.152 618.823 C 721.537 620.038, 723.442 620.381, 724.875 619.851 C 726.056 619.414, 729.315 619.491, 732.116 620.022 C 738.139 621.164, 738.435 621.029, 741.039 615.924 C 742.144 613.757, 745.063 609.882, 747.524 607.313 C 752.819 601.787, 752.644 602.374, 749.250 601.545 C 746.093 600.774, 739 596.151, 739 594.864 C 739 594.389, 739.891 594, 740.981 594 C 745.939 594, 744.133 584.677, 738.976 583.645 C 733.196 582.489, 732.502 585.111, 736.500 593 C 740.576 601.043, 739.270 604.496, 733.374 601.268 C 731.793 600.402, 728.942 598.863, 727.039 597.847 C 725.119 596.822, 721.534 596, 718.989 596 C 714.592 596, 714.346 595.844, 713.065 592.250 C 712.330 590.188, 710.859 587.263, 709.796 585.750 C 707.652 582.699, 708.254 582.358, 712 584.500 C 716.883 587.291, 720.380 586.420, 726.413 580.906 C 734.843 573.201, 738.132 573.089, 745.694 580.248 C 751.578 585.819, 756.595 589, 759.496 589 C 760.789 589, 760.961 589.689, 760.407 592.645 C 759.908 595.305, 760.039 596.094, 760.891 595.567 C 761.555 595.157, 763.572 596.173, 765.565 597.923 C 769.163 601.082, 771 601.777, 771 599.979 C 771 599.417, 769.863 598.439, 768.474 597.806 C 765.182 596.306, 765.826 594.582, 769.827 594.187 C 773.802 593.794, 773.831 592.922, 769.944 590.626 C 766.154 588.387, 766.344 585.482, 770.277 585.539 C 773.014 585.579, 773.050 585.514, 773.398 579.840 C 773.454 578.928, 773.837 577.840, 774.250 577.424 C 775.420 576.243, 775.129 573.771, 773.440 570.532 C 772.589 568.900, 772.143 566.565, 772.450 565.343 C 772.757 564.122, 772.556 562.843, 772.004 562.502 C 770.869 561.801, 770.619 558, 771.708 558 C 772.097 558, 774.010 559.509, 775.958 561.354 C 779.867 565.055, 786.486 568, 790.895 568 C 792.464 568, 795.673 568.679, 798.026 569.509 C 800.378 570.339, 804.711 571.301, 807.654 571.647 L 813.005 572.276 812.437 568.888 C 811.250 561.813, 810.857 560.830, 807.421 556.329 C 803.405 551.067, 803.922 549.451, 809.504 549.827 C 812.079 550.001, 813 549.659, 813 548.531 C 813 547.489, 813.980 547, 816.067 547 C 818.568 547, 819.029 546.667, 818.563 545.198 C 817.323 541.292, 820.235 539.569, 827.684 539.803 C 832.700 539.960, 835.127 539.592, 836.546 538.458 C 838.460 536.929, 838.456 536.909, 836.335 537.489 C 834.098 538.100, 830.520 534.585, 831.601 532.837 C 831.885 532.377, 837.266 532, 843.559 532 C 854.884 532, 858.748 530.723, 851.250 529.458 C 844.760 528.363, 844.152 527.989, 842.954 524.360 C 841.485 519.909, 842.514 518.763, 847.600 519.182 C 850.914 519.455, 851.589 519.927, 852.349 522.500 C 853.685 527.028, 854.566 528.471, 856.193 528.792 C 857.397 529.029, 857.587 528.060, 857.215 523.581 L 856.759 518.078 865.379 518.490 C 874.624 518.931, 875.389 518.559, 871.328 515.597 C 869.244 514.077, 868.349 513.925, 866.882 514.842 C 865.319 515.818, 864.824 515.561, 863.560 513.116 C 861.777 509.667, 863.097 508.024, 869.236 506.053 C 875.343 504.093, 875.575 502.517, 869.886 501.622 C 862.052 500.391, 860.710 499.372, 861.467 495.234 C 863.214 485.697, 870.797 479.866, 884.647 477.411 C 890.920 476.298, 900.710 473.656, 901.747 472.795 C 903.589 471.266, 904.362 472.456, 903.081 474.849 C 900.001 480.603, 903.253 486.039, 909.298 485.244 C 915.691 484.402, 921.856 481.410, 923.178 478.509 C 923.819 477.103, 925.503 475.676, 926.921 475.338 C 930.756 474.425, 932 473.080, 932 469.846 C 932 464.500, 926.131 465.852, 926.032 471.221 C 925.949 475.728, 915.214 474.986, 906.241 469.852 C 895.267 463.573, 893.177 460.473, 896.857 455.929 C 898.708 453.643, 898.725 453.641, 902.571 455.467 C 908.310 458.190, 918.758 458.683, 923.458 456.453 C 929.009 453.819, 931.237 449.719, 930.634 443.250 C 929.986 436.303, 931.311 436.384, 939.275 443.781 C 946.547 450.534, 951.210 452.901, 953.501 450.999 C 955.675 449.195, 955.372 448.397, 951.979 446.991 C 949.276 445.872, 949.022 445.402, 949.561 442.525 C 950.238 438.920, 950.495 439.086, 937.765 434.936 C 930.532 432.578, 928.638 431.120, 929.176 428.323 C 929.868 424.732, 933.392 424.155, 943.586 425.966 C 952.065 427.472, 957.309 427.185, 952.015 425.505 C 948.959 424.535, 949.568 423.264, 954.250 420.839 C 958.020 418.885, 960.099 418.629, 972.666 418.568 C 980.457 418.531, 987.150 418.182, 987.539 417.793 C 989.249 416.085, 986.926 413.999, 983.281 413.968 C 979.802 413.939, 976 412.194, 976 410.626 C 976 409.279, 982.570 404.057, 984.300 404.029 C 985.718 404.006, 985.892 403.629, 985.120 402.251 C 984.407 400.976, 984.593 400.002, 985.807 398.660 C 987.514 396.775, 986.400 395.038, 982.608 393.673 C 981.957 393.439, 982.500 392.186, 983.924 390.637 C 986.494 387.842, 988.227 387.170, 987.501 389.250 C 987.014 390.645, 994.850 396, 997.380 396 C 999.201 396, 999.550 394.458, 997.951 393.470 C 997.241 393.031, 997.301 392.342, 998.137 391.335 C 999.578 389.598, 997.891 388.052, 994.500 388 C 991.270 387.951, 989.629 386.553, 991.236 385.219 C 993.158 383.624, 1001.625 380.110, 1006.400 378.926 C 1015.260 376.729, 1023.744 374.864, 1028.886 373.983 C 1035.714 372.813, 1035.627 372.954, 1032.551 368.080 C 1029.971 363.994, 1029.940 363.980, 1027.028 365.486 C 1023.470 367.325, 1013.457 367.455, 1010 365.706 C 1007.255 364.317, 1006.624 361.579, 1009 361.365 C 1009.825 361.291, 1010.887 361.179, 1011.361 361.115 C 1011.834 361.052, 1011.159 360.128, 1009.861 359.063 C 1007.922 357.472, 1007.703 356.801, 1008.635 355.313 C 1010.445 352.422, 1019.431 353.715, 1020.287 356.989 C 1020.613 358.234, 1021.650 359, 1023.011 359 C 1025.205 359, 1033.239 362.653, 1037.300 365.498 C 1040.074 367.441, 1042.980 367.403, 1045.858 365.387 C 1049.090 363.123, 1048.010 359.442, 1042.742 354.774 L 1038.537 351.047 1042.978 346.523 C 1046.340 343.097, 1047.914 342.150, 1049.459 342.623 C 1052.597 343.585, 1052.662 343.992, 1050 346 C 1046.483 348.653, 1047.609 348.933, 1054.793 347.193 C 1059.134 346.142, 1060.932 345.266, 1060.589 344.371 C 1059.972 342.763, 1065.858 341.497, 1069.591 342.434 C 1071.024 342.793, 1072.004 342.730, 1071.771 342.294 C 1071.537 341.857, 1070.719 340.038, 1069.953 338.250 C 1068.501 334.859, 1067 333.950, 1067 336.461 C 1067 338.894, 1063.098 341.836, 1060.681 341.226 C 1056.122 340.075, 1055.507 334.632, 1059.721 332.729 C 1062.298 331.565, 1062.101 331.466, 1055.971 330.844 C 1052.412 330.482, 1047.392 329.865, 1044.816 329.471 C 1040.515 328.813, 1039.917 328.986, 1037.512 331.582 M 261.570 341.887 C 261.269 342.374, 261.614 343.265, 262.338 343.865 C 263.739 345.028, 270 343.325, 270 341.781 C 270 340.697, 262.245 340.795, 261.570 341.887 M 1057.494 353.006 C 1056.496 354.110, 1055.973 355.307, 1056.333 355.667 C 1057.063 356.396, 1061 353.171, 1061 351.845 C 1061 350.385, 1059.381 350.921, 1057.494 353.006 M 1067.667 357.667 C 1065.896 359.437, 1067.024 362.127, 1069.250 361.443 C 1072.331 360.496, 1072.469 360.270, 1071.020 358.524 C 1069.646 356.869, 1068.705 356.628, 1067.667 357.667 M 236.038 371 C 236.052 371.275, 236.724 372.374, 237.532 373.441 C 239.777 376.409, 239.310 377.219, 235.750 376.532 C 232.639 375.932, 232.585 375.974, 234.500 377.503 C 236.483 379.086, 236.479 379.117, 234 381.026 C 232.625 382.086, 228.350 384.010, 224.500 385.302 C 217.621 387.610, 217.463 387.741, 215.387 392.898 C 214.225 395.784, 211.477 400.025, 209.279 402.322 C 207.082 404.620, 203.648 408.975, 201.647 412 C 197.751 417.890, 194.403 420.798, 190.233 421.913 C 186.411 422.935, 186.199 425, 189.917 425 C 191.780 425, 193 425.514, 193 426.300 C 193 428.439, 190.781 430, 187.741 430 C 183.834 430, 185.182 431.703, 190.146 433.039 C 193.894 434.049, 194.174 434.361, 193.774 437.085 C 193.521 438.809, 193.894 440.497, 194.670 441.141 C 196.076 442.308, 196.524 446.028, 195.250 445.959 C 194.838 445.937, 192.942 444.587, 191.038 442.959 C 186.478 439.062, 185.913 439.209, 186.232 444.213 C 186.441 447.502, 186.129 448.502, 184.808 448.775 C 182.823 449.185, 180 444.389, 180 440.609 C 180 437.559, 178.654 436.619, 175.443 437.425 C 166.678 439.625, 181.688 453.975, 192.772 453.992 C 203.536 454.009, 218.381 444.013, 224.026 432.950 C 226.474 428.150, 227.247 428.059, 229.736 432.277 C 236.323 443.441, 250.334 452.784, 252.403 447.392 C 252.949 445.968, 253.278 445.949, 255.260 447.227 C 258.454 449.286, 262.102 450.086, 261.804 448.663 C 261.671 448.023, 262.350 446.319, 263.314 444.874 C 264.278 443.430, 265.263 441.231, 265.503 439.986 C 268.031 426.860, 270.728 424.030, 276.510 428.440 L 279.925 431.045 281.459 428.079 C 282.428 426.205, 282.625 424.886, 281.993 424.495 C 281.443 424.156, 281.268 422.780, 281.605 421.439 C 282.155 419.247, 281.903 419, 279.119 419 C 269.309 419, 253.553 407.698, 248.237 396.849 C 245.367 390.991, 243.679 381.968, 244.221 375.385 L 244.642 370.271 240.327 370.385 C 237.954 370.448, 236.024 370.725, 236.038 371 M 341.615 383.615 C 339.489 386.280, 339.062 387.462, 339.915 388.315 C 341.483 389.883, 344.227 388.060, 345.445 384.641 C 347.034 380.180, 344.828 379.589, 341.615 383.615 M 317 385.761 C 317 389.850, 318.677 390.911, 324.156 390.289 C 328.731 389.770, 328.796 389.713, 327.859 387.026 C 327.140 384.963, 326.243 384.288, 324.203 384.278 C 322.716 384.270, 320.488 383.927, 319.250 383.516 C 317.251 382.850, 317 383.101, 317 385.761 M 1016.459 384.067 C 1016.096 384.653, 1015.957 385.230, 1016.150 385.349 C 1016.342 385.469, 1017.288 386.169, 1018.250 386.905 C 1019.812 388.101, 1020 387.964, 1020 385.622 C 1020 382.959, 1017.753 381.972, 1016.459 384.067 M 1022 388.813 C 1022 390.082, 1028.893 391.983, 1029.562 390.899 C 1030.148 389.951, 1029.383 389.580, 1024.750 388.564 C 1023.237 388.233, 1022 388.345, 1022 388.813 M 221 391.750 C 221 392.916, 228.033 398.244, 229.751 398.379 C 233.080 398.641, 231.717 396.361, 226.984 393.750 C 221.638 390.801, 221 390.588, 221 391.750 M 236.667 397.667 C 235.290 399.043, 236.073 401, 238 401 C 239.333 401, 240 400.333, 240 399 C 240 397.073, 238.043 396.290, 236.667 397.667 M 912.605 422.250 C 913.003 422.938, 914.183 424.734, 915.227 426.243 C 917.864 430.052, 916.810 431, 909.941 431 C 905.327 431, 904 431.335, 904 432.500 C 904 433.550, 905.059 434, 907.531 434 C 911.828 434, 912.889 435.995, 910.517 439.615 C 909.510 441.151, 909.181 442.581, 909.712 443.112 C 910.243 443.643, 911.314 442.415, 912.332 440.107 C 913.280 437.961, 916.133 434.288, 918.674 431.947 C 923.886 427.142, 923.768 425.723, 917.909 422.798 C 913.801 420.747, 911.604 420.520, 912.605 422.250 M 957.306 443.500 C 960.255 446.128, 963.421 446.745, 964.554 444.913 C 965.570 443.268, 963.971 442.321, 959 441.627 L 954.500 440.999 957.306 443.500 M 922.250 462.061 C 917.253 466.777, 917.302 466.633, 920.500 467.245 C 922.167 467.563, 923 467.273, 923 466.374 C 923 465.632, 924.800 463.889, 927 462.500 C 929.200 461.111, 931 459.531, 931 458.987 C 931 456.662, 926.175 458.357, 922.250 462.061 M 840.223 464.557 C 838.111 466.035, 837.085 470, 838.813 470 C 839.786 470, 845 464.687, 845 463.695 C 845 462.493, 842.534 462.937, 840.223 464.557 M 173.504 484.373 C 171.388 485.921, 171.646 486.075, 178.758 487.507 C 180.550 487.867, 182.479 489.026, 183.044 490.081 C 183.990 491.850, 185.319 492, 200.035 492 C 210.373 492, 216 491.635, 216 490.965 C 216 490.251, 216.601 490.251, 217.934 490.965 C 220.223 492.189, 224 492.338, 224 491.203 C 224 490.765, 222.294 488.740, 220.208 486.703 L 216.416 483 195.899 483 C 180.082 483, 174.952 483.315, 173.504 484.373 M 227 484.378 C 227 485.135, 227.629 486.277, 228.397 486.914 C 229.165 487.552, 229.563 488.957, 229.280 490.037 C 228.834 491.741, 229.284 492, 232.682 492 C 236.210 492, 236.717 491.670, 237.799 488.679 C 239.754 483.272, 239.525 483, 233 483 C 228.570 483, 227 483.361, 227 484.378 M 803.250 483.662 C 802.563 483.940, 802 484.579, 802 485.083 C 802 486.534, 804.631 486.150, 806 484.500 C 807.312 482.919, 806.047 482.534, 803.250 483.662 M 887 485.700 C 887 486.738, 891.884 494, 892.581 494 C 892.983 494, 892.082 486.873, 891.617 486.374 C 890.937 485.645, 887 485.070, 887 485.700 M 920.667 486.667 C 919.752 487.581, 919.822 492.005, 920.750 491.978 C 922.496 491.926, 926.232 488.185, 925.585 487.137 C 924.818 485.896, 921.732 485.601, 920.667 486.667 M 791.113 494.652 C 789.803 497.527, 790.287 498.409, 793.750 499.455 C 796.295 500.224, 796.458 499.613, 794.902 495.149 C 793.562 491.306, 792.689 491.191, 791.113 494.652 M 883.417 514.423 C 887.191 517.870, 889.061 518.827, 888.945 517.250 C 888.867 516.192, 883.567 512.130, 881.351 511.430 C 880.324 511.106, 881.244 512.439, 883.417 514.423 M 875 518.031 C 875 519.320, 877.849 520.484, 878.764 519.569 C 879.137 519.196, 878.780 518.473, 877.971 517.961 C 876.035 516.737, 875 516.761, 875 518.031 M 866.441 529.468 C 864.542 530.905, 864.547 530.937, 866.668 530.968 C 869.474 531.009, 872 530.026, 872 528.893 C 872 527.493, 868.585 527.847, 866.441 529.468 M 843.750 537.392 C 841.355 539.210, 841.555 540.203, 844.240 539.820 C 845.472 539.644, 846.630 538.712, 846.813 537.750 C 847.207 535.681, 846.165 535.559, 843.750 537.392 M 560.639 634.694 C 559.211 636.122, 560.150 639.052, 562.538 640.617 C 564.932 642.185, 565.156 642.173, 566.506 640.390 C 568.465 637.801, 568.389 637.532, 565.250 635.966 C 561.262 633.977, 561.336 633.997, 560.639 634.694 M 556.459 649.067 C 555.615 650.433, 555.839 650.587, 559.750 651.331 C 562.528 651.860, 563 651.663, 563 649.975 C 563 647.786, 557.705 647.051, 556.459 649.067 M 565.017 656.750 C 565.046 657.981, 571.267 661.953, 572.233 661.356 C 572.723 661.053, 571.659 659.724, 569.868 658.403 C 566.539 655.946, 564.987 655.418, 565.017 656.750 M 635.104 661.535 C 632.144 664.906, 630.878 670, 633 670 C 633.550 670, 634 669.077, 634 667.948 C 634 666.567, 634.981 665.554, 637 664.850 C 639.404 664.012, 640 663.228, 640 660.902 C 640 657.095, 638.874 657.241, 635.104 661.535 M 554.619 712.594 C 552.310 715.501, 552.012 716.394, 553.119 717.095 C 556.043 718.947, 558.282 716.542, 557.818 712.049 L 557.500 708.967 554.619 712.594 M 529.514 712.954 C 528.561 715.958, 531.825 720.308, 534.413 719.484 C 535.561 719.119, 537.541 718.771, 538.814 718.710 C 540.640 718.623, 541.012 718.167, 540.578 716.550 C 540.275 715.423, 540.021 714.163, 540.014 713.750 C 540.006 713.337, 538.452 713, 536.559 713 C 534.666 713, 532.840 712.550, 532.500 712 C 531.517 710.409, 530.187 710.834, 529.514 712.954 M 423 722.640 C 423 722.992, 423.788 723.860, 424.750 724.569 C 426.371 725.763, 426.269 726.085, 423.354 728.946 C 421.623 730.645, 418.357 735.148, 416.096 738.954 C 411.929 745.969, 408.726 748.992, 403.750 750.607 C 400.091 751.795, 399.838 753.424, 403.250 753.816 C 408.242 754.391, 405.885 759, 400.600 759 C 398.456 759, 397.907 759.307, 398.678 760.078 C 400.245 761.645, 407.428 763.119, 407.833 761.956 C 408.500 760.045, 409.855 761.099, 412.966 765.947 C 425.421 785.357, 443.886 787.471, 456.920 770.982 C 460.441 766.527, 467.596 753.130, 466.781 752.517 C 466.626 752.401, 463.575 751.729, 460 751.024 C 446.832 748.425, 436.056 740.131, 430.423 728.260 C 428.143 723.456, 427.005 722.089, 425.250 722.050 C 424.012 722.023, 423 722.288, 423 722.640 M 494.665 750.174 C 493.821 753.400, 494.495 753.809, 499.734 753.246 C 505.434 752.634, 505.353 752.687, 504.524 750.075 C 503.535 746.958, 495.485 747.038, 494.665 750.174 M 387.078 767.406 C 385.712 769.052, 386.533 781.593, 388.070 782.543 C 388.528 782.826, 390.310 781.801, 392.029 780.265 L 395.155 777.472 393.769 771.986 C 392.295 766.147, 389.634 764.326, 387.078 767.406 M 398 769.378 C 398 771.822, 400.868 773.507, 401.634 771.512 C 402.019 770.509, 401.713 769.432, 400.896 768.914 C 398.901 767.651, 398 767.796, 398 769.378 M 489 776.161 L 486.500 777.196 488.842 778.100 C 491.512 779.130, 493 778.537, 493 776.441 C 493 774.778, 492.438 774.739, 489 776.161 M 478 780 C 478 781.367, 478.667 782, 480.107 782 C 481.617 782, 482.042 781.552, 481.607 780.418 C 481.273 779.548, 481 778.648, 481 778.418 C 481 778.188, 480.325 778, 479.500 778 C 478.667 778, 478 778.889, 478 780 M 388 815 C 388 815.550, 389.503 816, 391.340 816 C 394.350 816, 394.810 816.395, 396 820 L 397.320 824 413.601 824 C 428.326 824, 432.918 823.303, 430.016 821.510 C 428.048 820.294, 428.953 818.905, 431 820 C 432.100 820.589, 433 821.730, 433 822.535 C 433 824.189, 435.637 824.351, 446.272 823.346 C 452.672 822.742, 452.956 822.609, 451.443 820.937 C 450.225 819.591, 450.091 818.698, 450.885 817.215 C 452.315 814.543, 451.458 814, 445.814 814 C 441.236 814, 440.995 814.131, 441.545 816.324 C 442.738 821.075, 439.380 821.777, 435.163 817.659 L 431.416 814 409.708 814 C 395.903 814, 388 814.364, 388 815"/><path fill="#20419A" fill-rule="evenodd" d="M 959.031 142.633 C 959.087 144.159, 964.053 147.193, 965.553 146.618 C 967.594 145.835, 967.358 143.003, 965.250 142.986 C 964.288 142.979, 962.487 142.701, 961.250 142.370 C 960.013 142.038, 959.014 142.157, 959.031 142.633 M 928.400 157.765 C 925.666 159.590, 924.770 163.109, 926.671 164.550 C 927.677 165.313, 928.837 165.951, 929.250 165.968 C 929.663 165.986, 930 167.589, 930 169.531 C 930 174.110, 928.602 174.579, 919.678 172.994 C 915.730 172.293, 911.429 171.633, 910.121 171.527 C 908.453 171.393, 907.193 170.208, 905.907 167.564 C 902.208 159.960, 900.543 159.275, 899.063 164.750 C 897.659 169.943, 893.551 174.586, 882.481 183.490 C 877.259 187.690, 872.303 192.448, 871.467 194.063 C 869.544 197.783, 869.979 197.888, 862.904 192 C 855.252 185.631, 854.056 185.676, 858.519 192.164 C 863.753 199.773, 861.465 201.268, 855.180 194.346 C 846.963 185.297, 841.761 186.487, 845.899 196.469 C 847.101 199.370, 847.954 202.320, 847.793 203.024 C 847.374 204.855, 853.790 209, 857.044 209 C 859.555 209, 865.998 214.600, 866.001 216.785 C 866.003 218.129, 844.627 216.958, 840.500 215.387 C 838.283 214.544, 833.585 210.992, 829.961 207.419 L 823.423 200.973 819.961 206.172 C 817.351 210.093, 815.148 212.026, 811 214.036 C 805.641 216.633, 801.672 217.593, 776.073 222.489 C 772.415 223.189, 771.326 224.691, 772.784 227.025 C 773.882 228.784, 773.757 229, 771.631 229 C 768.511 229, 767.529 230.326, 765.524 237.250 C 764.498 240.791, 763.309 243, 762.429 243 C 761.643 243, 761 242.550, 761 242 C 761 241.450, 760.541 241, 759.981 241 C 758.587 241, 759.690 245.184, 763.077 252.750 C 766.138 259.588, 765.794 260.065, 759.654 257.500 C 755.315 255.687, 749 255.509, 749 257.200 C 749 258.091, 748.709 258.109, 747.872 257.272 C 747.208 256.608, 746.076 256.477, 745.122 256.954 C 729.139 264.947, 714.483 267.507, 707.923 263.452 C 707.415 263.139, 707 263.250, 707 263.700 C 707 264.151, 707.836 265.041, 708.858 265.679 C 710.897 266.953, 715.305 274.055, 716.505 278 C 717.231 280.387, 717.181 280.424, 715.383 278.829 C 711.673 275.536, 703.223 272, 699.065 272 C 691.490 272, 681.251 279.227, 683.771 282.795 C 688.528 289.533, 688.290 291.992, 683.223 288.443 C 680.443 286.496, 680.337 287.666, 683.033 290.535 C 687.236 295.009, 682.350 296.072, 664.383 294.594 C 657.182 294.001, 654.066 294.084, 653.574 294.881 C 653.193 295.496, 653.072 296, 653.304 296 C 660.050 296, 673.999 302.629, 674.001 305.836 C 674.002 306.751, 673.539 311.325, 672.972 316 C 670.361 337.547, 669.002 349.297, 668 359 C 667.403 364.775, 666.251 375.125, 665.440 382 C 664.629 388.875, 663.314 400.125, 662.518 407 C 661.722 413.875, 660.573 423.545, 659.964 428.489 L 658.858 437.478 662.914 441.261 C 665.145 443.341, 668.326 445.315, 669.985 445.647 C 672.941 446.238, 673 446.368, 673 452.325 C 673 457.001, 673.272 458.128, 674.183 457.217 C 675.093 456.307, 676.800 457.412, 681.596 462.017 C 687.183 467.382, 690 469.178, 690 467.376 C 690 467.033, 687.973 464.968, 685.496 462.787 C 683.018 460.607, 681.245 458.413, 681.555 457.911 C 682.433 456.491, 686.324 456.839, 688.777 458.557 C 692.868 461.422, 691.059 458.496, 685.084 452.583 C 679.410 446.968, 678.267 444, 681.778 444 C 682.639 444, 684.165 444.745, 685.171 445.655 C 686.821 447.148, 687 447.154, 687 445.714 C 687 444.836, 686.550 443.840, 686 443.500 C 684.489 442.566, 684.802 441, 686.500 441 C 687.325 441, 688 440.550, 688 440 C 688 439.450, 687.311 439, 686.469 439 C 684.381 439, 683.502 436.305, 685 434.500 C 686.623 432.544, 685.748 429.471, 681.920 423.693 C 680.183 421.071, 678.683 417.705, 678.586 416.213 C 678.489 414.721, 677.643 412.060, 676.705 410.300 C 673.591 404.454, 674.934 404.636, 681.138 410.899 C 688.705 418.535, 693.884 422.149, 703.622 426.587 C 707.772 428.478, 712.592 431.110, 714.334 432.435 C 718.896 435.908, 731.041 440.239, 730.965 438.367 C 730.945 437.890, 730.286 436.375, 729.500 435 C 728.714 433.625, 728.055 431.470, 728.035 430.210 C 727.987 427.097, 724.892 421.256, 720.511 416.013 C 712.719 406.686, 711.969 401.413, 718.940 404.970 C 724.108 407.606, 725.399 407.613, 724 405 C 722.855 402.861, 725.213 401.918, 726.500 404 C 727.864 406.206, 730.232 405.063, 729.608 402.500 C 729.274 401.125, 728.727 398.879, 728.394 397.509 C 727.461 393.676, 730.226 393.370, 737.899 396.459 C 745.329 399.450, 749.286 399.515, 749.832 396.653 C 750.108 395.203, 749.752 394.944, 748.174 395.445 C 746.143 396.089, 741 390.864, 741 388.156 C 741 386.869, 743.258 386.592, 744.404 387.737 C 744.809 388.142, 748.147 389.031, 751.820 389.712 C 755.494 390.393, 760.525 391.373, 763 391.888 C 765.475 392.404, 767.677 392.651, 767.893 392.437 C 768.850 391.489, 765.437 388.925, 761.975 387.993 C 757.299 386.734, 752.337 381.315, 751.429 376.475 C 750.557 371.825, 751.042 371.496, 756.425 373.086 C 760.593 374.316, 761.105 374.842, 763.126 379.959 C 765.483 385.926, 768.546 390, 770.674 390 C 772.480 390, 772.369 389.107, 769.624 381.545 C 768.317 377.945, 767.426 375, 767.642 375 C 768.539 375, 782.851 378.993, 785.323 379.933 C 789.011 381.335, 788.676 380.066, 784.208 375.703 C 780.503 372.085, 778 370.995, 778 373 C 778 375.209, 776.372 373.765, 774.157 369.591 C 771.186 363.989, 771.572 361.592, 775.509 361.210 C 779.202 360.851, 784 359.026, 784 357.980 C 784 357.552, 779.976 355.124, 775.059 352.585 C 766.194 348.006, 766.112 347.929, 765.457 343.564 C 763.099 327.839, 769.656 322.949, 792.904 323.097 C 799.832 323.141, 805.950 323.084, 806.500 322.970 C 809.593 322.331, 810.113 323.067, 809.522 327.250 C 808.785 332.463, 813.883 341.955, 818.041 343.115 C 825.794 345.277, 836 342.574, 836 338.360 C 836 335.896, 836.360 335.637, 841.293 334.554 C 844.837 333.775, 845.567 331.836, 844.127 327.028 C 842.796 322.587, 840.162 321.059, 838.278 323.634 C 837.095 325.252, 836.788 325.171, 834.002 322.502 C 830.141 318.803, 830.168 318.678, 835.500 315.553 C 840.688 312.513, 840.961 311.759, 837.453 310.161 C 833.694 308.448, 833.325 308.589, 828.463 313.592 C 823.159 319.049, 823.057 319.561, 827.116 320.373 C 830.760 321.102, 838.505 328.374, 837.451 330.079 C 836.196 332.111, 827.829 330.573, 822.984 327.420 C 816.492 323.194, 801.583 310.530, 798.039 306.232 C 794.662 302.134, 793.760 295.413, 796.448 294.381 C 797.836 293.849, 804 296.811, 804 298.011 C 804 299.048, 816.373 304.899, 821.275 306.180 C 827.566 307.824, 832.042 305.668, 834.307 299.900 C 835.751 296.225, 835.700 295.530, 833.465 288.285 C 832.157 284.047, 831.317 280.350, 831.598 280.069 C 831.879 279.788, 838.310 285.958, 845.890 293.779 C 856.676 304.909, 860.237 308, 862.276 308 C 866.810 308, 866.639 305.875, 861.759 301.561 C 856.398 296.822, 853.705 289.137, 857.868 290.458 C 860.998 291.451, 860.470 290.129, 857.250 288.908 C 853.887 287.634, 830.320 273.119, 829.139 271.595 C 826.921 268.733, 826.105 264.038, 827.571 262.571 C 829.398 260.745, 831.766 261.477, 845.584 268.139 C 856.385 273.345, 861.496 274.597, 857.139 270.967 C 855.841 269.885, 854.208 269, 853.512 269 C 850.877 269, 849.529 266.042, 851.339 264.232 C 853.941 261.630, 864.434 262.356, 874.861 265.860 C 888.224 270.350, 893.828 271.572, 895.121 270.279 C 896.915 268.485, 893.075 264.280, 888.045 262.531 C 881.449 260.237, 874.797 253, 879.284 253 C 879.991 253, 881.387 251.615, 882.387 249.922 L 884.205 246.844 886.603 249.096 C 889.425 251.748, 889.673 250.948, 887.282 246.901 C 885.837 244.453, 885.755 243.488, 886.765 240.812 C 887.425 239.063, 887.861 237.584, 887.733 237.525 C 886.003 236.734, 880 231.672, 880 231.005 C 880 230.514, 881.111 228.849, 882.468 227.306 L 884.937 224.500 884.969 227 C 884.991 228.747, 886.567 230.856, 890.196 234 C 899.312 241.897, 904.227 244.047, 900.635 238.566 C 898.427 235.196, 898.577 233.528, 901.250 231.731 C 902.487 230.899, 903.138 229.845, 902.696 229.388 C 902.253 228.932, 901.499 229.193, 901.018 229.970 C 900.304 231.126, 898.861 230.721, 893.078 227.747 C 885.401 223.798, 885.410 223.629, 893.462 220.765 C 897.581 219.299, 901.865 219, 918.712 219 C 929.870 219, 939 218.743, 939 218.429 C 939 218.115, 936.910 214.930, 934.356 211.350 C 930.420 205.835, 929.391 204.956, 927.606 205.588 C 919.260 208.544, 899.220 200.082, 901.360 194.506 C 901.923 193.038, 902.801 193.276, 908.414 196.415 C 915.308 200.270, 916 200.510, 916 199.047 C 916 198.523, 913.862 197.149, 911.250 195.996 C 904.811 193.152, 900 188.365, 900 184.804 C 900 181.343, 900.548 181.336, 908.083 184.698 C 912.930 186.860, 914.238 187.939, 914.677 190.135 C 915.098 192.238, 916.525 193.529, 920.813 195.688 C 923.886 197.234, 928.898 200.762, 931.950 203.526 C 943.530 214.013, 947.772 215.932, 950.334 211.843 C 952.274 208.747, 949.362 202.552, 942.399 194.965 C 936.456 188.489, 935.988 187.671, 937.354 186.161 C 938.183 185.245, 939.335 183.248, 939.915 181.723 C 941.367 177.905, 943.381 177.423, 947.031 180.022 L 950.132 182.230 948.066 184.430 C 945.027 187.665, 945.269 187.818, 954.002 188.174 C 962.178 188.507, 963.135 188.187, 960.500 186 C 959.675 185.315, 959 184.360, 959 183.878 C 959 181.665, 968.865 183.886, 972.383 186.892 C 974.154 188.404, 974.225 188.370, 973.586 186.315 C 972.633 183.250, 966.651 173.083, 965.775 173.037 C 965.376 173.017, 965.305 174.276, 965.617 175.836 C 967.152 183.510, 958.359 183.435, 954.521 175.741 C 951.971 170.631, 953.350 167.190, 957.675 167.869 C 958.321 167.970, 959.099 167.649, 959.405 167.154 C 959.710 166.660, 958.057 166.040, 955.730 165.777 C 953.404 165.514, 947.589 163.432, 942.810 161.150 C 934.368 157.119, 930.669 156.250, 928.400 157.765 M 968.980 159.524 C 968.284 160.362, 967.892 161.174, 968.107 161.327 C 974.298 165.719, 975.855 165.664, 973.281 161.142 C 971.256 157.584, 970.749 157.393, 968.980 159.524 M 986.467 161.630 C 985.127 163.076, 983.280 165.961, 982.362 168.040 C 981.311 170.423, 980.197 171.629, 979.347 171.303 C 978.606 171.019, 978 171.226, 978 171.764 C 978 173.746, 991.054 173.152, 995.572 170.965 C 1001.690 168.003, 1002.734 166.468, 1000.390 163.879 C 995.641 158.631, 990.079 157.732, 986.467 161.630 M 966 192.500 C 968.136 194.774, 971 195.868, 971 194.410 C 971 193.361, 966.543 190.068, 965.076 190.033 C 964.101 190.011, 964.393 190.789, 966 192.500 M 960.732 196.282 C 959.872 196.952, 959.001 198.400, 958.796 199.500 C 958.581 200.653, 957.698 201.441, 956.712 201.361 C 954.562 201.187, 954.470 202.583, 956.578 203.392 C 958.192 204.011, 964 199.116, 964 197.136 C 964 195.422, 962.379 194.998, 960.732 196.282 M 974 210.832 C 974 213.189, 974.578 213.842, 977.444 214.721 C 982.022 216.127, 982.422 215.420, 979.338 211.377 C 976.156 207.205, 974 206.985, 974 210.832 M 921.558 228.906 C 921.250 229.404, 920.098 229.577, 918.999 229.289 C 915.667 228.418, 916.626 229.527, 926.034 237.420 C 931.932 242.369, 935.924 245, 937.534 245 C 941.533 245, 940.401 243.622, 933.846 240.509 C 926.472 237.007, 924 234.572, 924 230.811 C 924 228.083, 922.696 227.065, 921.558 228.906 M 802 248.483 C 802 248.764, 804.025 251.745, 806.500 255.107 C 812.956 263.877, 812 266.116, 803.346 262.500 C 798.561 260.501, 797 260.609, 797 262.941 C 797 265.062, 798.423 266.275, 801.466 266.748 C 807.259 267.648, 810.483 274.487, 806.250 276.897 C 804.624 277.823, 804.659 278.054, 806.750 280.169 L 809 282.444 809 279.711 C 809 275.819, 812.724 268.410, 816.113 265.558 C 819.836 262.426, 819.792 262.166, 814.750 257.396 C 810.608 253.478, 802 247.460, 802 248.483 M 728.200 289.200 C 726.709 290.691, 726.631 294.654, 728.074 295.546 C 729.308 296.308, 734 292.260, 734 290.433 C 734 289.322, 731.891 288, 730.118 288 C 729.723 288, 728.860 288.540, 728.200 289.200 M 866.536 298.037 C 869.784 301.334, 872.189 302.975, 873.499 302.787 C 877.215 302.254, 875.534 299.518, 869.500 296.278 C 861.283 291.866, 860.762 292.175, 866.536 298.037 M 689.511 305.368 C 687.695 306.696, 687.700 306.769, 689.688 307.833 C 692.017 309.080, 693 308.486, 693 305.833 C 693 303.647, 692.040 303.519, 689.511 305.368 M 678.316 316.462 C 677.365 320.617, 677.473 321.079, 679.954 323.456 C 682.151 325.560, 685 326.840, 685 325.721 C 685 325.568, 683.725 322.421, 682.167 318.727 L 679.334 312.013 678.316 316.462 M 636.133 325.500 C 637.268 327.425, 638.603 329, 639.099 329 C 640.851 329, 639.997 324.069, 638.066 323.035 C 634.611 321.186, 634.027 321.931, 636.133 325.500 M 742.996 327.496 C 744.286 328.869, 745.562 329.772, 745.831 329.502 C 746.495 328.838, 742.948 325, 741.671 325 C 741.110 325, 741.707 326.123, 742.996 327.496 M 618 329.948 C 618 330.470, 619.125 332.111, 620.500 333.595 C 624.715 338.142, 623.915 339.360, 617.250 338.542 C 599.731 336.391, 597.267 337.522, 604.391 344.446 C 608.420 348.362, 610.327 352, 608.350 352 C 607.993 352, 605.523 349.729, 602.861 346.953 C 598.450 342.351, 597.726 341.961, 594.676 342.533 C 591.603 343.109, 590.957 342.746, 586.762 338.080 C 581.447 332.168, 581 332.003, 581 335.943 C 581 337.851, 581.782 339.434, 583.223 340.443 C 584.445 341.299, 584.876 342, 584.181 342 C 582.287 342, 579.615 344.883, 575.957 350.875 L 572.675 356.249 576.088 362.375 C 579.365 368.258, 579.500 368.915, 579.500 379 C 579.500 390.416, 577.963 395.103, 572.160 401.376 C 565.158 408.948, 549.900 411.094, 538.585 406.099 C 532.292 403.321, 531.873 403.815, 531.249 414.765 C 529.572 444.174, 544.094 459.923, 565.501 451.914 C 571.772 449.567, 583.035 439.278, 586.477 432.750 C 587.565 430.688, 588.716 429, 589.035 429 C 589.353 429, 591.790 431.963, 594.448 435.583 C 600.674 444.063, 607.832 448.931, 615.126 449.646 C 620.876 450.210, 628.046 448.417, 628.762 446.236 C 629.246 444.758, 623.238 442, 619.532 442 C 618.082 442, 617 441.427, 617 440.660 C 617 439.922, 614.749 435.574, 611.997 430.996 C 609.246 426.418, 607.119 422.548, 607.271 422.396 C 607.423 422.244, 609.610 423.404, 612.131 424.973 C 620.032 429.891, 623.164 429.295, 628.510 421.853 C 630.505 419.076, 631.994 416.702, 631.819 416.578 C 631.643 416.454, 629.867 415.602, 627.870 414.686 C 622.501 412.222, 613.433 402.791, 610.527 396.649 C 598.869 372.006, 612.559 344.717, 638.571 340.748 C 640.733 340.418, 641.007 339.965, 640.985 336.750 C 640.954 332.171, 639.674 331.608, 634.500 333.897 C 627.659 336.923, 623.490 336.152, 620.941 331.390 C 619.657 328.990, 618 328.178, 618 329.948 M 793.615 337.250 C 794.448 338.670, 802.127 350.280, 802.655 350.917 C 804.073 352.628, 803.813 349.366, 802.250 345.833 C 801.196 343.450, 800.512 340.964, 800.731 340.308 C 800.949 339.653, 799.771 338.416, 798.113 337.559 C 794.477 335.678, 792.618 335.550, 793.615 337.250 M 835.565 351.596 C 834.378 356.327, 837.323 358.179, 841.131 355.095 C 843.449 353.218, 843.455 353.160, 841.586 351.095 C 838.974 348.209, 836.361 348.426, 835.565 351.596 M 793 371.587 C 793 372.963, 805.458 385, 806.882 385 C 807.789 385, 805.527 382.058, 801.500 378 C 795.159 371.610, 793 369.981, 793 371.587 M 790 381.339 C 790 382.076, 791.125 383.192, 792.500 383.818 C 795.272 385.081, 796.072 383.472, 793.800 381.200 C 792.195 379.595, 790 379.675, 790 381.339 M 458.522 394.070 C 459.020 395.638, 458.672 396.273, 457.090 396.687 C 455.592 397.078, 455 398.034, 455 400.058 C 455 403.673, 453.385 404.659, 451 402.500 C 449.031 400.718, 447 401.197, 447 403.443 C 447 404.171, 448.773 406.369, 450.939 408.326 C 453.106 410.284, 455.618 413.014, 456.522 414.393 L 458.165 416.901 454.720 416.342 C 452.822 416.034, 450.266 416.323, 449.030 416.984 C 447.407 417.853, 446.483 417.883, 445.693 417.093 C 443.696 415.096, 443.241 415.955, 443.755 420.750 C 444.368 426.475, 445.584 429.097, 447.316 428.432 C 448.065 428.145, 449.272 429.348, 450.211 431.316 C 455.407 442.212, 470.893 453.205, 481.252 453.351 C 496.948 453.572, 505.775 441.169, 505.922 418.684 C 506.026 402.971, 505.758 402.523, 498.111 405.611 C 494.848 406.929, 490.963 408.108, 489.478 408.231 C 487.623 408.385, 486.479 409.245, 485.825 410.977 C 484.364 414.849, 479.904 419, 477.206 419 C 475.299 419, 474.936 418.629, 475.492 417.250 C 475.880 416.288, 476.433 413.842, 476.722 411.815 C 477.221 408.306, 477.060 408.052, 473.373 406.517 C 468.694 404.570, 461.375 397.631, 460.555 394.365 C 460.229 393.064, 459.490 392, 458.914 392 C 458.308 392, 458.143 392.875, 458.522 394.070 M 782.590 394.901 C 780.503 397.206, 781.225 397.697, 786.750 397.729 C 791.429 397.755, 791.915 397.138, 789.171 394.655 C 786.774 392.485, 784.706 392.563, 782.590 394.901 M 756.750 399.067 C 753.934 400.728, 754.725 402, 758.573 402 C 761.429 402, 762.079 401.651, 761.812 400.261 C 761.411 398.178, 759.157 397.646, 756.750 399.067 M 638 432.500 C 638 435.230, 638.936 435.664, 640.800 433.800 C 642.640 431.960, 642.228 430, 640 430 C 638.533 430, 638 430.667, 638 432.500 M 432.087 434.360 C 430.299 437.252, 427 445.278, 427 446.734 C 427 448.572, 433.393 444.996, 437.750 440.720 C 443.852 434.732, 444.131 433.590, 439.851 432.098 C 435.150 430.459, 434.354 430.691, 432.087 434.360 M 370.077 453.589 C 365.945 457.066, 366.158 457.500, 372 457.500 C 374.750 457.500, 377 457.365, 377 457.200 C 377 456.536, 373.921 451, 373.551 451 C 373.332 451, 371.769 452.165, 370.077 453.589 M 656.627 458.706 C 656.282 459.051, 656.003 461.171, 656.007 463.417 C 656.021 472.454, 653.771 483, 651.827 483 C 649.458 483, 649.497 484.205, 651.915 485.715 C 654.263 487.181, 655.200 486.224, 657.013 480.500 C 659.272 473.369, 662.388 467.780, 664.688 466.732 C 665.925 466.169, 666.703 465.329, 666.418 464.867 C 665.402 463.223, 657.244 458.089, 656.627 458.706 M 375.656 475.698 C 372.021 479.850, 370.925 481.827, 371.267 483.616 C 371.643 485.584, 371.310 486, 369.361 486 C 366.737 486, 366.111 488.445, 368.500 489.362 C 370.218 490.021, 370.502 492.572, 368.963 493.523 C 368.393 493.875, 366.129 493.227, 363.932 492.082 C 361.736 490.937, 358.552 490, 356.858 490 L 353.778 490 356.139 491.929 C 359.492 494.668, 357.675 495.952, 350.210 496.121 C 345.688 496.223, 344 496.634, 344 497.631 C 344 498.384, 343.663 499.002, 343.250 499.004 C 342.837 499.007, 340.128 500.807, 337.230 503.004 C 331.385 507.435, 330.231 507.688, 325.950 505.474 C 322.113 503.490, 322.229 504.353, 326.500 509.565 C 330.941 514.985, 330.891 515.340, 325.959 513.367 C 320.992 511.379, 319.584 512.286, 323.858 514.719 C 325.579 515.698, 326.990 516.844, 326.994 517.265 C 327.009 519.171, 320.074 521.970, 313.803 522.588 C 306.432 523.314, 306.207 523.467, 308.607 526.118 C 310.004 527.662, 310.038 528.293, 308.863 530.947 C 307.505 534.015, 305.659 534.875, 304.490 532.984 C 304.144 532.425, 303.414 532.244, 302.866 532.583 C 302.258 532.959, 302.476 533.869, 303.427 534.920 C 304.853 536.495, 304.733 536.882, 301.997 539.503 C 299.897 541.515, 298.246 544.868, 296.439 550.794 C 293.526 560.342, 291.108 563.355, 285.050 564.986 C 280.194 566.294, 280.197 567.883, 285.060 569.520 C 287.927 570.485, 288.500 571.163, 288.500 573.589 C 288.500 575.190, 288.050 576.446, 287.500 576.381 C 286.950 576.315, 284.965 575.974, 283.088 575.623 L 279.677 574.985 281.587 577.096 C 282.638 578.257, 285.421 580.334, 287.772 581.712 C 292.534 584.503, 294 586.584, 294 590.552 C 294 592.108, 295.261 594.672, 297 596.653 C 299.920 599.979, 300.919 603, 299.099 603 C 298.603 603, 295.266 599.738, 291.682 595.750 C 284.403 587.650, 282.363 587.392, 286.350 595.076 C 289.501 601.151, 289.669 603, 287.068 603 C 284.648 603, 281.862 599.058, 279.445 592.212 C 277.307 586.157, 274.762 583, 272.020 583 C 269.807 583, 268.508 584.578, 269.974 585.484 C 270.528 585.826, 270.916 587.784, 270.835 589.833 C 270.755 591.883, 271.895 597.180, 273.368 601.604 C 278.865 618.110, 279.387 626, 274.981 626 C 270.404 626, 273.124 633.632, 281.128 643.249 C 286.495 649.699, 286.821 650.671, 284.250 652.576 C 282.690 653.731, 283.232 654.206, 289.235 656.939 C 295.197 659.654, 296.258 660.575, 298.485 664.970 C 302.484 672.863, 301.064 675.890, 295.927 670.422 C 293.673 668.023, 283.008 661, 281.619 661 C 280.168 661, 281.162 662.916, 282.899 663.468 C 286.384 664.574, 290.017 669.250, 291.587 674.653 C 293.313 680.588, 293.329 680.599, 297.368 678.492 C 300.184 677.023, 301.705 676.624, 309.285 675.363 L 313.069 674.733 312.315 668.617 C 309.344 644.532, 312.714 636.502, 329 628.857 C 338.005 624.630, 338.203 624.619, 345.622 627.976 C 363.839 636.221, 367.450 643.796, 364.581 667.750 C 363.949 673.030, 364.024 675, 364.856 675 C 365.557 675, 366 673.127, 366 670.167 C 366 667.508, 366.282 665.051, 366.627 664.707 C 367.534 663.800, 372.107 666.389, 374.924 669.405 C 376.258 670.832, 377.810 672, 378.374 672 C 378.978 672, 378.907 671.507, 378.200 670.800 C 376.519 669.119, 376.703 663.492, 378.487 662.011 C 379.351 661.294, 381.045 661.045, 382.528 661.418 C 385.079 662.058, 385.080 662.056, 383.515 659.029 C 382.162 656.413, 382.148 656, 383.415 656 C 384.222 656, 385.202 656.518, 385.594 657.151 C 386.648 658.858, 389 655.209, 389 651.868 C 389 650.355, 389.450 648.840, 390 648.500 C 391.471 647.591, 391.219 645.979, 389.697 646.563 C 388.203 647.136, 369 627.766, 369 625.686 C 369 621.634, 373.382 623.658, 380.500 631 C 384.841 635.478, 389.663 639, 391.450 639 C 391.753 639, 392 638.237, 392 637.305 C 392 635.384, 387.212 630, 385.504 630 C 384.887 630, 383.515 629.366, 382.454 628.590 C 380.564 627.208, 380.563 627.140, 382.415 625.094 C 384.093 623.240, 384.236 621.916, 383.703 613.165 C 382.775 597.931, 383.374 596.990, 390.669 602.228 C 395.235 605.508, 397.157 608.705, 398.348 615 C 399.005 618.470, 403.157 622, 406.581 622 C 408.772 622, 408.258 619.592, 405.832 618.487 C 402.465 616.954, 401.416 614.577, 402.783 611.578 C 404.482 607.847, 408.558 608.220, 418.684 613.031 C 428.772 617.823, 434.918 619.009, 436.954 616.556 C 438.168 615.092, 437.697 614.256, 432.949 609.449 C 425.677 602.085, 428.488 602.520, 436.911 610.061 C 446.817 618.930, 449.695 620.082, 451.270 615.807 C 451.697 614.647, 450.775 613.132, 448.342 610.995 C 444.667 607.768, 444.529 605.600, 448.143 607.857 C 450.733 609.475, 451.796 608.505, 450.212 605.968 C 447.976 602.388, 448.811 598.693, 453 593.623 C 457.745 587.880, 458.309 582.396, 455.015 574.037 C 452.681 568.117, 452.606 568.160, 458.610 571.968 C 464.585 575.757, 471.999 578.221, 476.208 577.816 C 480.019 577.450, 481.077 574.013, 478.955 568.893 C 477.803 566.111, 477.501 566, 471.079 566 C 467.142 566, 463.897 566.503, 463.175 567.225 C 462.208 568.192, 461.514 568.177, 459.881 567.158 C 458.729 566.438, 455.307 565.932, 452.156 566.015 C 449.045 566.097, 434.317 566.127, 419.426 566.082 L 392.353 566 391.122 554.750 C 390.446 548.563, 389.724 541.925, 389.519 540 C 387.902 524.817, 386.641 513.906, 385.417 504.500 C 384.630 498.450, 383.989 493.163, 383.993 492.750 C 383.997 492.337, 425.579 492, 476.397 492 L 568.795 492 573.837 487.750 L 578.878 483.500 518.780 483.242 C 485.726 483.100, 458.446 483.220, 458.158 483.509 C 457.869 483.797, 458.166 484.566, 458.817 485.217 C 461.367 487.767, 459.831 488.212, 457.195 485.687 L 454.391 483 419.254 483 C 396.322 483, 383.898 482.644, 383.484 481.974 C 383.135 481.410, 382.596 478.485, 382.285 475.474 C 381.974 472.463, 381.446 470.037, 381.110 470.082 C 380.775 470.127, 378.320 472.654, 375.656 475.698 M 588.577 485.250 C 590.736 492.078, 590.487 492, 610.115 492 C 619.952 492, 627.997 491.663, 627.993 491.250 C 627.984 490.275, 622.542 486.640, 617.655 484.345 C 613.899 482.581, 613.776 482.585, 612.343 484.520 C 610.958 486.390, 610.804 486.403, 609.578 484.750 C 608.489 483.282, 606.632 483, 598.072 483 C 587.943 483, 587.871 483.017, 588.577 485.250 M 312.167 531.784 C 313.017 533.784, 326.159 545.020, 327.023 544.486 C 328.276 543.711, 328.299 541, 327.052 541 C 326.530 541, 323.400 538.750, 320.096 536 C 314.681 531.494, 311.273 529.682, 312.167 531.784 M 333.667 544.667 C 332.297 546.036, 333.070 548.967, 335.086 550.046 C 337.796 551.497, 338.341 550.830, 337.516 547.072 C 336.884 544.196, 335.194 543.140, 333.667 544.667 M 483 567.387 C 483 571.895, 495.417 583.916, 497.708 581.625 C 498.488 580.845, 494.798 573.027, 493.643 573.011 C 493.172 573.005, 493.040 573.661, 493.349 574.468 C 493.659 575.275, 493.409 576.247, 492.794 576.628 C 491.177 577.627, 486 571.421, 486 568.484 C 486 566.943, 485.431 566, 484.500 566 C 483.675 566, 483 566.624, 483 567.387 M 502.571 567.750 C 503.596 570.033, 503.629 573.929, 502.648 576.750 C 502.187 578.074, 502.264 579, 502.835 579 C 504.168 579, 506 573.415, 506 569.351 C 506 566.610, 505.616 566, 503.893 566 C 502.254 566, 501.960 566.389, 502.571 567.750 M 397 595.761 C 397 599.101, 399.021 601.281, 402.315 601.494 C 403.517 601.572, 406.007 601.988, 407.850 602.419 C 411.038 603.165, 411.163 603.089, 410.455 600.851 C 409.045 596.393, 406.843 594, 404.135 593.986 C 402.686 593.979, 400.488 593.701, 399.250 593.370 C 397.283 592.843, 397 593.144, 397 595.761 M 401 631.658 C 400.175 631.933, 398.836 632.373, 398.024 632.635 C 396.981 632.971, 397.507 633.719, 399.816 635.180 C 403.518 637.524, 403.584 637.504, 404.527 633.748 C 405.232 630.939, 404.484 630.496, 401 631.658 M 376.306 647.532 C 377.849 648.889, 380.099 649.998, 381.306 649.995 C 383.079 649.991, 382.733 649.517, 379.500 647.526 C 374.359 644.360, 372.704 644.363, 376.306 647.532 M 352 737.500 C 352 738.325, 352.637 739, 353.417 739 C 354.196 739, 354.983 739.407, 355.167 739.905 C 355.699 741.349, 360.271 741.626, 360.743 740.242 C 361.003 739.481, 359.946 738.739, 358.065 738.363 C 356.356 738.021, 354.716 737.350, 354.420 736.871 C 353.553 735.467, 352 735.871, 352 737.500 M 351 748.981 C 351 753.280, 350.976 753.265, 359.250 754.372 C 364.252 755.042, 363.994 754.250, 357.575 749.237 C 350.952 744.064, 351 744.066, 351 748.981"/><path fill="#FFE01E" fill-rule="evenodd" d="M 645.728 189.722 C 647.503 189.943, 650.653 189.946, 652.728 189.730 C 654.802 189.513, 653.350 189.333, 649.500 189.328 C 645.650 189.324, 643.952 189.501, 645.728 189.722 M 533.958 252.250 C 538.102 256.665, 539 257.459, 539 256.708 C 539 256.548, 536.862 254.410, 534.250 251.958 L 529.500 247.500 533.958 252.250 M 859.107 291.250 C 859.348 291.387, 862.236 293.975, 865.523 297 L 871.500 302.500 866.034 296.750 C 863.028 293.587, 860.140 291, 859.617 291 C 859.095 291, 858.865 291.113, 859.107 291.250 M 145.213 296.932 C 129.774 304.959, 126.709 312.238, 129.395 334.500 L 130.240 341.500 122.870 343.389 C 104.517 348.093, 94.581 360.410, 94.548 378.500 C 94.505 401.765, 111.926 414.504, 133.500 406.983 C 143.175 403.610, 142.463 402.821, 142.780 417.278 C 143.085 431.180, 142.121 435.838, 137.493 442.831 C 126.593 459.302, 103.665 454.746, 89.835 433.360 C 87.572 429.862, 85.596 427, 85.442 427 C 85.289 427, 84.128 428.688, 82.863 430.750 C 71.107 449.920, 54.303 454.260, 41.480 441.437 C 36.840 436.797, 29 424.113, 29 421.246 C 29 420.805, 32.132 419.636, 35.960 418.650 C 49.660 415.121, 58.937 407.892, 65.096 395.949 C 69.813 386.800, 70.121 369.820, 65.732 360.874 C 60.876 350.975, 48.416 341.669, 38.182 340.298 L 34.500 339.805 34.848 325.804 C 35.132 314.375, 34.879 310.948, 33.467 307.151 C 28.502 293.797, 16.590 291.627, 3.375 301.671 C -0.165 304.362, -0.146 303.881, 2.501 324.500 C 3.277 330.550, 4.407 340.450, 5.011 346.500 C 5.615 352.550, 6.731 362.675, 7.492 369 C 8.253 375.325, 9.372 385.225, 9.980 391 C 10.588 396.775, 11.729 406.900, 12.514 413.500 C 13.300 420.100, 14.398 429.325, 14.954 434 C 15.511 438.675, 16.214 444.975, 16.517 448 C 16.820 451.025, 17.498 457.100, 18.024 461.500 C 18.549 465.900, 19.245 472.538, 19.569 476.250 L 20.159 483 97.330 483.038 C 139.773 483.058, 183.671 483.042, 194.880 483.001 C 212.867 482.935, 215.486 483.129, 217.173 484.657 C 218.852 486.176, 219.009 486.188, 218.461 484.760 C 217.907 483.315, 219.146 483.125, 229.471 483.076 C 236.905 483.041, 240.884 483.378, 240.494 484.010 C 239.702 485.291, 241.303 485.297, 242.582 484.018 C 243.155 483.445, 253.740 482.925, 268.032 482.768 L 292.500 482.500 292.742 478.500 C 292.876 476.300, 293.635 469.550, 294.431 463.500 C 296.941 444.400, 298.345 431.568, 298.151 429.500 C 298.048 428.400, 298.630 422.325, 299.445 416 C 300.259 409.675, 301.421 399.775, 302.025 394 C 302.630 388.225, 303.744 378.325, 304.500 372 C 305.256 365.675, 306.366 355.775, 306.965 350 C 307.565 344.225, 308.723 334.325, 309.538 328 C 312.653 303.816, 312.660 305.119, 309.399 302.363 C 300.880 295.166, 290.166 293.901, 284.628 299.438 C 278.040 306.027, 274.956 322.980, 277.887 336.500 C 278.490 339.283, 278.273 339.580, 274.874 340.613 C 272.859 341.226, 269.026 341.618, 266.356 341.485 C 261.800 341.258, 261.747 341.282, 265.500 341.875 L 269.500 342.507 266.250 343.702 C 264.462 344.358, 263 344.677, 263 344.409 C 263 344.140, 262.282 344.501, 261.405 345.211 C 247.052 356.811, 243.677 363.405, 244.165 378.890 C 244.465 388.391, 244.830 390.179, 247.663 396 C 253.939 408.901, 269.775 420, 281.904 420 C 284.351 420, 284.596 421.261, 282.548 423.310 C 281.749 424.108, 281.306 424.972, 281.563 425.230 C 281.820 425.487, 281.366 427.228, 280.554 429.099 C 279.743 430.969, 279.020 431.825, 278.949 431 C 278.878 430.175, 278.422 430.868, 277.936 432.540 C 277.450 434.212, 275.399 437.510, 273.380 439.869 C 262.704 452.342, 250.510 453.099, 238.700 442.023 C 235.290 438.826, 231.375 434.374, 230 432.132 C 227.051 427.322, 226.685 427.201, 225.165 430.537 C 215.647 451.427, 190.104 460.091, 177.136 446.828 C 175.411 445.064, 174 442.581, 174 441.310 C 174 440.040, 173.609 439, 173.132 439 C 170.266 439, 168.075 420.024, 169.631 408.675 C 170.204 404.494, 170.441 404.166, 172.210 405.112 C 179.735 409.140, 195.399 410.471, 202 407.645 C 215.497 401.866, 222.385 379.972, 215.561 364.542 C 210.932 354.076, 201.885 346.930, 189.500 343.956 C 182.739 342.333, 182.508 342.177, 182.721 339.388 C 184.357 317.983, 184.297 315.594, 182.004 310.723 C 179.274 304.926, 173.571 299.860, 165.357 295.935 C 157.431 292.148, 154.098 292.313, 145.213 296.932 M 509.204 296.005 C 493.225 303.399, 489.210 312.287, 491.770 334.593 L 492.584 341.686 486.931 342.853 C 479.619 344.364, 470.307 349.044, 466.324 353.211 C 458.561 361.333, 454.411 375.273, 456.883 384.922 C 457.587 387.667, 457.883 390.795, 457.541 391.872 C 457.199 392.950, 457.382 394.118, 457.948 394.468 C 458.573 394.854, 458.753 394.396, 458.407 393.302 C 457.898 391.692, 458.005 391.707, 459.418 393.441 C 460.649 394.951, 460.722 395.558, 459.750 396.176 C 458.825 396.763, 458.907 396.973, 460.062 396.985 C 460.921 396.993, 462.603 398.324, 463.800 399.943 C 466.668 403.823, 477.847 409.128, 483.293 409.195 C 487.729 409.249, 498.837 406.481, 500.450 404.920 C 504.628 400.875, 506.868 409.593, 505.663 425.215 C 503.965 447.229, 488.463 458.547, 470.780 450.681 C 463.814 447.582, 455.974 440.441, 451.708 433.308 C 449.962 430.389, 448.205 428, 447.804 428 C 447.403 428, 445.244 430.696, 443.006 433.991 C 428.279 455.678, 406.621 453.158, 394.524 428.350 C 392.503 424.207, 390.996 420.700, 391.175 420.557 C 391.354 420.415, 394.650 419.523, 398.500 418.575 C 407.952 416.249, 414.200 412.655, 420.190 406.101 C 440.027 384.397, 433.073 351.419, 406.708 342.160 C 403.294 340.961, 399.591 339.984, 398.480 339.990 C 396.540 340, 396.460 339.394, 396.480 324.750 C 396.502 307.882, 395.095 302.580, 389.411 298.109 C 385.260 294.844, 376.931 295.198, 370.451 298.915 C 361.659 303.958, 361.981 300.750, 366.524 338 C 368.608 355.083, 369.955 367.762, 370.402 374.500 C 370.621 377.800, 371.273 384.100, 371.851 388.500 C 373.166 398.518, 375.570 419.232, 377.015 433 C 378.208 444.357, 380.338 461.607, 382.170 474.743 L 383.320 482.986 515.968 483.243 C 588.924 483.384, 649.940 483.273, 651.558 482.995 C 654.251 482.533, 654.523 482.110, 654.766 477.995 C 654.913 475.523, 655.508 470.350, 656.090 466.500 C 656.671 462.650, 657.288 458.150, 657.461 456.500 C 657.633 454.850, 658.260 449.225, 658.854 444 C 659.448 438.775, 660.410 429.325, 660.993 423 C 661.576 416.675, 662.703 406.100, 663.497 399.500 C 667.279 368.069, 668.009 361.743, 669.036 351.500 C 669.643 345.450, 670.772 335.775, 671.545 330 C 672.318 324.225, 673.074 315.987, 673.225 311.694 L 673.500 303.888 667.682 300.253 C 654.575 292.063, 645.346 295.467, 640.891 310.133 C 638.677 317.422, 638.710 329.017, 640.968 336.889 C 641.807 339.813, 641.683 339.994, 638.173 340.969 C 636.153 341.530, 633.935 341.991, 633.245 341.994 C 631.434 342.002, 623.005 346.197, 619.310 348.929 C 605.845 358.884, 601.998 382.536, 611.205 398.767 C 617.396 409.682, 632.996 420, 643.307 420 C 644.723 420, 646.207 420.526, 646.605 421.170 C 647.096 421.964, 646.776 422.128, 645.612 421.681 C 644.668 421.319, 644.145 421.426, 644.450 421.918 C 647.033 426.098, 631.727 446.382, 624.101 448.884 C 613.346 452.414, 600.188 445.374, 592.067 431.744 C 589.530 427.486, 588.743 427.628, 586.088 432.818 C 582.895 439.061, 576.142 445.823, 569.247 449.678 C 552.909 458.815, 537.486 451.781, 532.461 432.901 C 529.852 423.096, 530.854 403.277, 533.893 404.590 C 560.141 415.927, 580.022 404.802, 580.005 378.788 C 579.994 361.271, 569.225 347.892, 552 343.993 C 543.609 342.094, 543.723 342.151, 544.513 340.242 C 544.910 339.284, 545.465 333.044, 545.747 326.375 C 546.354 312.026, 544.244 306.328, 536.297 300.860 C 524.352 292.642, 518.672 291.624, 509.204 296.005 M 488.364 299.494 C 488.048 300.316, 487.318 300.697, 486.741 300.340 C 486.128 299.961, 485.988 300.171, 486.405 300.845 C 487.402 302.459, 489 302.287, 489 300.566 C 489 299.770, 490.223 298.948, 491.750 298.716 L 494.500 298.300 491.719 298.150 C 490.064 298.061, 488.705 298.605, 488.364 299.494 M 410.707 327.212 C 412.742 329.296, 414.628 331, 414.899 331 C 415.170 331, 413.915 329.476, 412.109 327.612 C 409.792 325.222, 409.219 324.074, 410.163 323.714 C 410.898 323.434, 410.490 323.254, 409.255 323.314 C 407.159 323.418, 407.256 323.678, 410.707 327.212 M 1064 339.987 C 1063.175 340.465, 1061.713 341.099, 1060.750 341.396 C 1059.787 341.694, 1059.007 342.514, 1059.015 343.219 C 1059.027 344.177, 1059.254 344.148, 1059.914 343.104 C 1060.400 342.337, 1061.438 341.954, 1062.221 342.255 C 1063.003 342.555, 1064.178 341.945, 1064.830 340.900 C 1066.151 338.786, 1066.124 338.756, 1064 339.987 M 961.569 367.888 C 961.267 368.376, 962.355 368.972, 963.986 369.211 C 966.359 369.560, 966.732 369.382, 965.853 368.323 C 964.595 366.807, 962.377 366.582, 961.569 367.888 M 801.814 379.311 C 804.141 381.682, 805.810 383.857, 805.523 384.144 C 805.235 384.432, 805.697 384.667, 806.548 384.667 C 807.503 384.667, 806.271 382.813, 803.336 379.833 C 800.717 377.175, 798.352 375, 798.079 375 C 797.807 375, 799.487 376.940, 801.814 379.311 M 329 409.500 C 326.571 411.975, 324.809 414, 325.084 414 C 325.359 414, 327.571 411.975, 330 409.500 C 332.429 407.025, 334.191 405, 333.916 405 C 333.641 405, 331.429 407.025, 329 409.500 M 862 438 C 862.825 438.533, 864.850 438.931, 866.500 438.885 C 869.440 438.802, 869.450 438.785, 867 438 C 863.176 436.775, 860.105 436.775, 862 438 M 228.677 489.400 C 227.969 491.244, 220.349 492.534, 218.623 491.102 C 217.904 490.506, 216.982 490.351, 216.574 490.759 C 216.167 491.166, 172.221 491.335, 118.916 491.134 L 22 490.767 21.999 495.134 C 21.998 497.535, 22.428 503.100, 22.954 507.500 C 23.480 511.900, 24.609 521.800, 25.462 529.500 C 26.315 537.200, 27.587 548.675, 28.287 555 L 29.561 566.500 155.804 566.754 L 282.047 567.008 282.950 564.631 C 283.447 563.324, 284.131 558.935, 284.469 554.877 C 284.808 550.820, 285.710 542.325, 286.474 536 C 287.238 529.675, 288.361 519.325, 288.970 513 C 289.579 506.675, 290.316 499.152, 290.607 496.281 L 291.136 491.062 263.663 490.781 C 248.552 490.627, 236.398 490.837, 236.654 491.250 C 236.909 491.663, 235.261 492, 232.992 492 C 229.320 492, 228.935 491.779, 229.500 490 C 230.215 487.748, 229.508 487.233, 228.677 489.400 M 476.626 491.755 L 383.752 492.010 384.345 494.976 C 384.671 496.607, 385.199 500.992, 385.517 504.721 C 385.835 508.449, 386.721 516.675, 387.486 523 C 388.252 529.325, 389.382 539.900, 389.997 546.500 C 390.613 553.100, 391.343 560.414, 391.620 562.754 L 392.124 567.008 518.812 566.754 L 645.500 566.500 646.174 560.500 C 646.544 557.200, 647.357 549.325, 647.981 543 C 649.782 524.712, 649.980 522.892, 650.961 515.500 C 651.472 511.650, 652.173 504.652, 652.518 499.950 L 653.146 491.399 611.323 491.450 C 588.320 491.477, 527.707 491.615, 476.626 491.755 M 698.304 530.946 C 698.024 532.017, 697.053 533.090, 696.147 533.330 C 694.776 533.695, 694.809 533.787, 696.344 533.884 C 697.423 533.952, 698.410 533.148, 698.725 531.943 C 699.055 530.681, 699.812 530.097, 700.683 530.432 C 701.470 530.734, 701.831 530.536, 701.493 529.989 C 700.492 528.369, 698.849 528.863, 698.304 530.946 M 835.019 531.967 C 834.057 532.575, 835.634 532.697, 839.519 532.313 C 842.809 531.989, 845.688 531.561, 845.917 531.362 C 846.877 530.528, 836.373 531.111, 835.019 531.967 M 677 556.937 C 677 557.452, 675.538 558.055, 673.750 558.277 C 670.550 558.674, 670.558 558.682, 674.250 558.840 C 676.988 558.957, 678 558.595, 678 557.500 C 678 556.675, 677.775 556, 677.500 556 C 677.225 556, 677 556.421, 677 556.937 M 331.665 627.447 C 313.243 635.021, 308.220 645.370, 312.112 667.723 C 313.410 675.176, 313.712 674.619, 308 675.304 C 305.525 675.601, 301.404 676.745, 298.842 677.847 C 296.280 678.949, 293.980 679.646, 293.730 679.397 C 292.584 678.251, 281.538 690.763, 279.172 695.888 C 275.590 703.648, 275.488 716.903, 278.951 724.779 C 285.330 739.291, 301.521 744.733, 318.790 738.172 C 324.937 735.836, 324.607 735.497, 325.498 745.074 C 327 761.232, 322.325 775.041, 313.183 781.448 C 307.799 785.221, 296.097 785.776, 290 782.549 C 285.122 779.966, 273.184 768.251, 270.914 763.818 C 268.217 758.550, 267.491 758.486, 264.691 763.264 C 261.417 768.851, 252.279 777.431, 247.383 779.515 C 235.905 784.401, 223.403 777.731, 215.343 762.419 C 210.447 753.120, 210.367 752.342, 214.220 751.613 C 216.024 751.272, 218.539 750.790, 219.810 750.542 C 233.159 747.940, 245.831 734.912, 250.425 719.068 C 256.300 698.808, 241.223 675.555, 220.165 672.397 C 216.099 671.788, 215.853 671.575, 216.397 669.123 C 219.994 652.887, 216.600 635.510, 208.677 629.605 C 203.232 625.546, 192.919 627.584, 184.711 634.342 C 181.941 636.622, 181.928 636.686, 182.910 643.569 C 183.454 647.381, 184.627 657.025, 185.517 665 C 186.407 672.975, 187.752 684.675, 188.505 691 C 189.259 697.325, 190.370 707.225, 190.975 713 C 191.579 718.775, 192.707 728.675, 193.480 735 C 194.253 741.325, 195.368 751.225, 195.958 757 C 198.395 780.888, 202.585 813.919, 203.264 814.597 C 203.481 814.814, 254.904 815, 317.538 815.009 L 431.417 815.025 434.443 817.763 C 436.107 819.268, 436.688 819.565, 435.734 818.421 C 432.982 815.122, 433.496 814.872, 442.750 815.006 C 447.563 815.075, 456.554 815.102, 462.731 815.066 C 475.818 814.989, 474.586 816.344, 475.902 800.585 C 476.514 793.261, 477.158 790.358, 478.365 789.475 C 480.318 788.047, 480.527 786.861, 478.702 787.561 C 477.441 788.045, 478.570 771.748, 480.543 761 C 480.897 759.075, 481.360 754.575, 481.572 751 C 481.949 744.650, 482.558 738.963, 485.481 714.500 C 486.270 707.900, 487.379 698, 487.946 692.500 C 490.195 670.693, 490.139 671.001, 491.865 670.985 C 492.901 670.975, 493.095 670.700, 492.394 670.235 C 491.309 669.514, 491.409 667.261, 493.560 643.974 L 494.255 636.449 490.377 633.771 C 471.067 620.434, 456.936 632.317, 459.403 659.816 C 459.782 664.042, 460.184 668.605, 460.296 669.955 C 460.473 672.088, 459.973 672.502, 456.488 673.112 C 441.653 675.708, 430.275 686.236, 426.529 700.830 C 424.994 706.810, 424.622 718, 425.958 718 C 426.297 718, 426.635 718.808, 426.710 719.796 C 427.502 730.309, 444.191 748.122, 455.431 750.452 C 456.019 750.573, 458.672 751.028, 461.327 751.462 C 467.099 752.405, 467.097 753.485, 461.307 763.885 C 448.290 787.262, 429.344 787.952, 413.311 765.633 C 411.283 762.810, 409.450 760.279, 409.237 760.008 C 409.024 759.738, 408.406 760.310, 407.864 761.279 C 407.321 762.249, 406.385 762.738, 405.784 762.367 C 405.120 761.956, 404.977 762.155, 405.422 762.873 C 405.829 763.533, 404.793 766.106, 403.076 768.699 C 401.384 771.253, 400 772.941, 400 772.449 C 400 771.957, 399.278 772.585, 398.396 773.845 C 397.514 775.104, 396.187 775.902, 395.447 775.618 C 394.620 775.301, 394.299 775.617, 394.614 776.438 C 395.352 778.360, 390.346 781.572, 382.697 784.083 C 364.986 789.897, 352.783 778.005, 351.392 753.576 L 350.819 743.500 353.659 746 L 356.500 748.500 354.250 745.936 C 352.834 744.322, 352 742.074, 352 739.872 L 352 736.374 360.250 739.166 C 380.197 745.916, 394.814 738.593, 399.625 719.442 C 404.845 698.661, 388.830 676.275, 368.274 675.617 C 364.334 675.491, 363.090 673.692, 364.523 670.192 C 364.904 669.261, 365.280 666.250, 365.358 663.500 C 365.464 659.754, 365.856 658.577, 366.919 658.806 C 367.977 659.035, 368.065 658.780, 367.266 657.806 C 366.676 657.088, 365.867 653.800, 365.469 650.500 C 364.558 642.952, 363.264 640.420, 357.691 635.283 C 352.832 630.804, 349.579 628.888, 342.870 626.551 C 337.502 624.681, 338.605 624.593, 331.665 627.447 M 449.461 818.063 C 449.100 818.648, 449.593 819.998, 450.557 821.063 C 452.290 822.978, 450.897 823, 327.848 823 L 203.386 823 204.138 829.750 C 204.551 833.462, 205.574 842.575, 206.411 850 C 207.249 857.425, 208.433 868.675, 209.043 875 C 209.653 881.325, 210.456 889.200, 210.826 892.500 L 211.500 898.500 338.500 898.500 L 465.500 898.500 465.753 894.500 C 465.892 892.300, 466.653 885.325, 467.442 879 C 468.232 872.675, 469.382 862.100, 469.998 855.500 C 470.614 848.900, 471.688 839.109, 472.384 833.741 C 473.080 828.374, 473.428 823.762, 473.158 823.491 C 472.888 823.221, 468.311 823, 462.988 823 C 454.685 823, 453.061 822.725, 451.557 821.063 C 450.593 819.998, 450.100 818.648, 450.461 818.063 C 450.822 817.478, 450.893 817, 450.618 817 C 450.343 817, 449.822 817.478, 449.461 818.063"/></svg>