<svg xmlns="http://www.w3.org/2000/svg" viewBox="0 0 120 120" role="img" aria-label="SweCham">
  <title>SweCham — TSCC crown mark</title>
  <rect width="120" height="120" rx="28" fill="#ffffff"/>
  <g transform="translate(12 20.8) scale(0.2667)"><path fill="#EF4323" fill-rule="evenodd" d="M 269.736 0.598 C 269.407 0.927, 269.364 1.784, 269.639 2.503 C 270.283 4.181, 264.056 5.709, 263.071 4.115 C 262.650 3.434, 260.341 4.913, 256.991 8.008 C 252.486 12.171, 250.960 13, 247.795 13 C 244.667 13, 244 13.351, 244 15 C 244 16.333, 244.667 17, 246 17 C 247.100 17, 248 17.399, 248 17.887 C 248 19.198, 241.781 19.907, 239.724 18.831 C 238.436 18.157, 237.147 18.471, 235.040 19.972 C 233.441 21.110, 230.192 22.727, 227.820 23.564 C 222.875 25.308, 217 30.539, 217 33.196 C 217 34.345, 216.259 35, 214.960 35 C 213.838 35, 211.156 35.900, 209 37 C 206.844 38.100, 204.387 39, 203.540 39 C 202.693 39, 202 39.675, 202 40.500 C 202 41.440, 201.051 42, 199.455 42 C 196.933 42, 192 45.941, 192 47.955 C 192 48.530, 190.762 49.007, 189.250 49.015 C 185.094 49.038, 183.302 50.454, 184.937 52.424 C 186.066 53.784, 185.782 54.193, 182.862 55.413 C 181.001 56.191, 178.227 57.987, 176.697 59.405 C 175.167 60.823, 172.697 62.242, 171.208 62.557 C 169.718 62.873, 167.326 63.765, 165.890 64.539 C 164.455 65.314, 163.004 65.670, 162.665 65.332 C 161.912 64.579, 150.124 66.991, 149.482 68.029 C 149.229 68.438, 149.866 68.993, 150.896 69.263 C 152.275 69.623, 152.645 70.407, 152.297 72.228 C 151.752 75.080, 144.052 77.652, 142.050 75.650 C 141.317 74.917, 140.648 74.952, 139.833 75.767 C 138.943 76.657, 139.062 77.087, 140.333 77.574 C 143.655 78.849, 142.041 80.262, 138 79.616 C 134.884 79.118, 134 79.296, 134 80.421 C 134 81.215, 133.059 82.164, 131.909 82.529 C 130.493 82.978, 129.973 83.790, 130.300 85.040 C 130.574 86.086, 129.964 87.628, 128.892 88.598 C 126.745 90.541, 126.593 90.202, 127.975 86.565 C 129.149 83.477, 128.099 83.316, 123 85.803 C 120.769 86.892, 119.381 88.347, 119.172 89.817 C 118.992 91.085, 118.191 92.373, 117.393 92.680 C 116.501 93.022, 116.169 93.958, 116.534 95.106 C 117.050 96.733, 116.729 96.896, 114.063 96.363 C 111.772 95.904, 111 96.115, 111 97.201 C 111 99.354, 106.696 103, 104.154 103 C 102.935 103, 101.741 103.562, 101.501 104.250 C 100.744 106.419, 97.249 139.464, 97.694 140.250 C 98.348 141.406, 102 141.137, 102 139.933 C 102 139.318, 102.854 139.136, 104.011 139.503 C 105.657 140.026, 106.132 139.589, 106.631 137.093 C 106.967 135.417, 107.862 133.530, 108.621 132.900 C 109.379 132.270, 110 131.135, 110 130.378 C 110 129.510, 111.123 129, 113.031 129 C 116.763 129, 117.898 126.650, 115.466 123.963 C 113.916 122.249, 113.892 122, 115.278 122 C 116.151 122, 117.168 122.953, 117.537 124.118 C 118.193 126.182, 118.254 126.188, 120.004 124.368 C 121.691 122.611, 121.713 121.817, 120.366 111.011 C 119.019 100.198, 119.039 99.444, 120.716 98.218 C 125.586 94.657, 130.403 99.250, 129.664 106.750 C 129.157 111.898, 133.197 113.335, 134.425 108.443 C 134.881 106.627, 135.564 106.034, 136.783 106.396 C 143.213 108.303, 143.778 108.234, 145.155 105.371 C 147.299 100.910, 151.343 99.096, 153.928 101.435 C 155.565 102.916, 155.748 103.599, 154.811 104.728 C 153.890 105.837, 153.936 106.342, 155.017 107.010 C 156.798 108.111, 156.939 108.005, 160.738 102.715 C 164.016 98.151, 164.035 97, 160.833 97 C 158.828 97, 158.571 96.225, 159.888 94.147 C 160.501 93.179, 161.281 93.068, 162.623 93.758 C 167.605 96.317, 171.647 95.969, 174.005 92.780 C 175.964 90.129, 176.059 89.613, 174.724 88.865 C 173.804 88.350, 173.395 87.205, 173.706 86.015 C 174.041 84.737, 173.634 83.797, 172.570 83.389 C 170.232 82.491, 169.645 83.468, 171 86 C 172.538 88.873, 172.164 89.066, 167.741 87.681 C 164.154 86.559, 162.512 84, 165.378 84 C 166.135 84, 167.315 83.325, 168 82.500 C 170.133 79.930, 173.425 80.821, 177.803 85.156 C 180.358 87.686, 182.060 88.762, 182.152 87.906 C 182.236 87.133, 182.360 86.050, 182.429 85.500 C 182.497 84.950, 182.921 83.912, 183.371 83.193 C 183.820 82.474, 183.898 80.728, 183.542 79.313 C 182.962 76.999, 183.128 76.805, 185.198 77.383 C 193.836 79.799, 200.434 77.858, 195 74.500 C 193.345 73.477, 193.872 72, 195.893 72 C 196.934 72, 198.045 71.325, 198.362 70.500 C 198.678 69.675, 199.761 69, 200.769 69 C 201.776 69, 203.027 68.585, 203.550 68.077 C 204.072 67.569, 205.850 67.007, 207.500 66.827 C 209.725 66.584, 210.583 65.919, 210.820 64.250 C 211.029 62.774, 211.826 62, 213.137 62 C 214.680 62, 214.990 61.544, 214.500 60 C 214.136 58.853, 214.320 58, 214.933 58 C 215.520 58, 216 57.550, 216 57 C 216 56.450, 215.352 56, 214.559 56 C 209.456 56, 214.475 49.696, 220.474 48.571 C 223.480 48.007, 224.530 48.195, 225.217 49.423 C 225.702 50.290, 227.007 51, 228.116 51 C 230.640 51, 237.188 46.113, 236.391 44.824 C 236.053 44.276, 235.065 44.537, 234.072 45.435 C 231.693 47.588, 228.771 47.395, 225.564 44.871 C 222.177 42.208, 223.254 41.166, 228.783 41.758 C 232.518 42.158, 232.901 42.415, 231.783 43.771 C 230.716 45.064, 230.752 45.241, 232 44.827 C 232.825 44.552, 233.565 43.692, 233.644 42.914 C 234.219 37.296, 235.482 36.248, 238.842 38.602 C 240.100 39.483, 241.362 39.972, 241.646 39.688 C 242.715 38.618, 239.954 35.205, 237.526 34.596 C 233.665 33.627, 234.203 30.891, 238.101 31.670 C 240.198 32.090, 241.476 31.848, 242.046 30.925 C 242.612 30.010, 244.555 29.633, 247.945 29.780 C 253.084 30.004, 253.985 29.385, 251.758 27.158 C 250.770 26.170, 250.799 25.742, 251.902 25.061 C 252.737 24.544, 253.060 23.336, 252.714 22.015 C 252 19.284, 259.149 15.734, 265.651 15.591 C 269.406 15.509, 269.705 15.319, 268.788 13.604 C 267.909 11.962, 268.065 11.784, 269.948 12.276 C 272.587 12.966, 273.794 10.662, 271.954 8.445 C 270.928 7.208, 270.930 6.684, 271.967 5.708 C 272.971 4.763, 273.350 4.774, 273.710 5.756 C 273.964 6.447, 274.582 6.758, 275.085 6.447 C 275.588 6.136, 276 6.584, 276 7.441 C 276 9.301, 276.444 9.357, 279.316 7.865 C 282.345 6.290, 282.291 6.412, 281.011 4.021 C 280.160 2.430, 279.529 2.146, 278.588 2.927 C 276.896 4.332, 275.715 3.048, 277.131 1.342 C 278.284 -0.047, 271.103 -0.770, 269.736 0.598 M 261 10 C 261 11.556, 261.667 12, 264 12 C 265.650 12, 267 11.550, 267 11 C 267 10.450, 266.325 10, 265.500 10 C 264.675 10, 264 9.550, 264 9 C 264 8.450, 263.325 8, 262.500 8 C 261.667 8, 261 8.889, 261 10 M 355.443 105.418 C 354.376 106.198, 353.838 107.171, 354.247 107.581 C 355.301 108.635, 360.243 106.202, 359.497 104.996 C 358.663 103.646, 357.735 103.742, 355.443 105.418 M 340.212 107.763 C 339.546 107.985, 339 109.088, 339 110.215 C 339 112.006, 338.527 112.200, 335.242 111.759 C 331.864 111.306, 330.941 111.734, 326.125 115.979 C 321.687 119.892, 320.187 120.657, 317.384 120.434 C 314.398 120.198, 314 120.450, 314 122.583 C 314 124.212, 314.570 125.005, 315.750 125.015 C 317.246 125.028, 317.282 125.172, 316 126 C 314.029 127.273, 309.285 127.271, 308.498 125.996 C 308.128 125.399, 306.585 125.952, 304.689 127.362 C 302.935 128.666, 299.346 130.536, 296.713 131.517 C 291.925 133.300, 287 137.895, 287 140.577 C 287 141.360, 286.528 142, 285.950 142 C 283.454 142, 272.021 147.624, 272.011 148.857 C 272.005 149.654, 271.378 149.975, 270.491 149.635 C 268.102 148.718, 264.049 150.742, 263.059 153.346 C 262.075 155.933, 260.154 157, 256.477 157 C 253.930 157, 251.892 159.131, 253.823 159.774 C 256.146 160.549, 254.923 162.104, 250.500 164 C 248.025 165.061, 246 166.362, 246 166.891 C 246 168.117, 240.278 171, 237.846 171 C 236.831 171, 236 171.506, 236 172.125 C 236 172.850, 234.897 173.029, 232.897 172.629 C 230.312 172.112, 229.327 172.509, 226.996 175.004 C 225.457 176.652, 223.703 178, 223.099 178 C 222.494 178, 222 178.792, 222 179.759 C 222 180.727, 220.988 182.188, 219.750 183.006 C 217.583 184.437, 217.011 184.632, 214.229 184.885 C 213.529 184.948, 212.445 186.125, 211.818 187.500 C 210.574 190.230, 208 190.904, 208 188.500 C 208 186.632, 205.103 186.534, 203.610 188.351 C 203 189.094, 199.701 190.719, 196.281 191.961 C 189.798 194.317, 187.375 196.180, 188.477 197.963 C 188.835 198.541, 188.423 199.284, 187.563 199.614 C 186.704 199.944, 186 201.066, 186 202.107 C 186 203.448, 185.287 204, 183.555 204 C 181.872 204, 180.699 204.858, 179.795 206.750 C 178.840 208.746, 177.387 209.742, 174.490 210.384 C 160.775 213.421, 160.885 213.286, 159.068 229.500 C 158.452 235, 157.695 241.188, 157.386 243.250 C 156.933 246.271, 157.139 247, 158.444 247 C 159.335 247, 160.424 247.972, 160.864 249.160 C 161.589 251.120, 161.727 251.155, 162.348 249.535 C 162.907 248.078, 163.754 247.865, 166.956 248.377 C 169.262 248.746, 171.141 248.580, 171.515 247.976 C 171.865 247.410, 172.853 247.071, 173.712 247.223 C 174.595 247.380, 175.399 246.693, 175.564 245.642 C 175.724 244.620, 176.787 242.791, 177.927 241.577 C 179.067 240.364, 180 238.604, 180 237.666 C 180 236.382, 180.573 236.106, 182.325 236.545 C 184.041 236.976, 185.517 236.320, 187.958 234.039 C 190.097 232.041, 191.897 231.150, 193.052 231.517 C 194.250 231.897, 195.039 231.454, 195.445 230.174 C 195.778 229.123, 196.940 227.460, 198.026 226.477 C 199.111 225.494, 200 223.860, 200 222.845 C 200 221.830, 200.498 221, 201.107 221 C 201.716 221, 201.955 220.325, 201.638 219.500 C 201.295 218.606, 201.629 218, 202.464 218 C 203.235 218, 204.151 217.100, 204.500 216 C 204.849 214.900, 206.004 214, 207.067 214 C 209.272 214, 209.547 215.053, 207.800 216.800 C 206.867 217.733, 206.874 218, 207.831 218 C 208.509 218, 209.322 217.325, 209.638 216.500 C 209.955 215.675, 211.339 215, 212.714 215 C 214.529 215, 215.056 214.588, 214.636 213.495 C 213.587 210.759, 221.867 206.098, 223.591 208.455 C 224.354 209.499, 224.698 211.355, 224.370 212.662 C 223.894 214.559, 224.181 215, 225.892 215 C 227.051 215, 228 214.550, 228 214 C 228 212.177, 231.929 209.035, 233.469 209.626 C 235.481 210.399, 236.753 207.090, 234.896 205.914 C 234.128 205.428, 232.493 205.024, 231.261 205.015 C 229.488 205.003, 229.065 204.480, 229.229 202.500 C 229.343 201.125, 229.512 200, 229.604 200 C 229.696 200, 231.060 200.672, 232.636 201.494 C 237.370 203.963, 241.303 203.433, 243.853 199.985 C 245.781 197.377, 245.870 196.887, 244.512 196.366 C 243.507 195.981, 243.156 195.083, 243.539 193.877 C 243.926 192.658, 243.567 191.771, 242.526 191.372 C 240.230 190.490, 239.653 191.484, 241 194 C 242.537 196.872, 242.163 197.066, 237.755 195.686 C 234.095 194.540, 231.780 192, 234.397 192 C 235.130 192, 236.903 191.077, 238.337 189.950 C 241.341 187.587, 242.828 188.072, 247.437 192.914 C 249.052 194.611, 250.690 196, 251.076 196 C 251.999 196, 253.475 189.119, 253.166 186.250 C 253.033 185.012, 253.054 184.007, 253.212 184.015 C 253.370 184.023, 255.300 184.679, 257.500 185.471 C 264.873 188.127, 268.747 186.312, 264.750 182.075 C 263.750 181.015, 263.753 180.657, 264.768 180.286 C 265.465 180.030, 266.671 179.187, 267.446 178.411 C 268.222 177.635, 269.789 177, 270.929 177 C 272.103 177, 273 176.351, 273 175.500 C 273 174.445, 274.066 174, 276.594 174 C 279.346 174, 280.310 173.532, 280.710 172 C 281.090 170.546, 282.089 169.992, 284.367 169.970 C 287.206 169.942, 287.313 169.835, 285.500 168.822 C 282.526 167.161, 282.427 166.972, 284.024 165.985 C 285.271 165.214, 285.211 164.875, 283.619 163.710 C 280.115 161.148, 287.842 155, 294.565 155 C 294.676 155, 295.017 155.956, 295.322 157.124 C 295.774 158.854, 296.368 159.124, 298.524 158.583 C 301.669 157.794, 305.662 154.328, 304.623 153.290 C 304.220 152.887, 303.514 153.168, 303.053 153.914 C 302.006 155.608, 298.149 154.752, 294.876 152.099 C 291.815 149.617, 292.541 148.995, 297.691 149.685 C 300.973 150.126, 301.725 150.584, 301.275 151.871 C 300.802 153.225, 300.942 153.281, 302.103 152.200 C 302.871 151.485, 303.522 150.585, 303.549 150.200 C 303.882 145.460, 306.224 143.988, 309.177 146.661 C 311.363 148.639, 312.121 148.179, 311.375 145.327 C 311.057 144.112, 309.581 142.877, 307.839 142.370 C 304.226 141.319, 304.452 139.500, 308.196 139.500 C 309.679 139.500, 311.457 138.938, 312.146 138.250 C 312.836 137.563, 315.560 137, 318.200 137 C 320.840 137, 323 136.550, 323 136 C 323 135.450, 322.325 135, 321.500 135 C 319.516 135, 319.574 133.101, 321.581 132.331 C 322.529 131.967, 322.966 130.979, 322.674 129.862 C 322.161 127.901, 323.446 127.294, 324.500 129 C 325.434 130.511, 327 130.198, 327 128.500 C 327 127.675, 326.550 127, 326 127 C 322.567 127, 326.004 124.871, 331.154 123.807 C 335.230 122.965, 337.451 121.991, 337.731 120.921 C 338.020 119.816, 338.917 119.453, 340.577 119.770 C 343.385 120.307, 343.936 118.022, 341.488 115.990 C 340.330 115.029, 340.244 114.411, 341.120 113.355 C 341.932 112.376, 342.630 112.278, 343.521 113.017 C 344.930 114.187, 350 112.387, 350 110.717 C 350 110.188, 349.302 110.334, 348.449 111.042 C 347.143 112.126, 346.814 112.004, 346.359 110.264 C 345.832 108.249, 342.644 106.952, 340.212 107.763 M 330.676 117.402 C 329.717 119.900, 335.041 121.361, 336.500 119 C 336.840 118.450, 336.416 118, 335.559 118 C 334.702 118, 334 117.550, 334 117 C 334 115.479, 331.288 115.807, 330.676 117.402 M 77.006 122.988 C 76.421 124.082, 74.943 125.241, 73.721 125.565 C 72.500 125.889, 69.925 128.591, 68 131.569 C 66.075 134.547, 64.178 136.988, 63.785 136.992 C 61.808 137.014, 60.947 141.089, 62.575 142.718 C 64.135 144.278, 64.122 144.434, 62.373 145.092 C 61.226 145.523, 60.069 145.254, 59.390 144.398 C 57.952 142.588, 57 142.619, 57 144.477 C 57 149.853, 66.117 149.824, 71.204 144.431 L 74.423 141.018 77.462 143.911 C 81.801 148.042, 85.577 147.813, 87.057 143.328 C 87.849 140.928, 88.710 139.995, 89.940 140.203 C 91.622 140.488, 92 140.098, 92 138.078 C 92 137.570, 90.433 136.638, 88.517 136.006 C 84.244 134.595, 80.972 130.212, 80.267 124.953 C 79.682 120.593, 78.628 119.958, 77.006 122.988 M 58.441 159.504 C 60.943 161.432, 73.380 161.646, 72.753 159.750 C 72.478 158.919, 69.682 158.417, 64.420 158.254 C 57.216 158.030, 56.675 158.143, 58.441 159.504 M 136.381 241 C 134.925 243.200, 133.122 245, 132.373 245 C 131.527 245, 131.142 245.851, 131.356 247.250 C 131.545 248.488, 132.190 249.500, 132.791 249.500 C 133.391 249.500, 135.312 250.963, 137.060 252.750 C 141.277 257.063, 145.161 257.110, 149.099 252.894 C 152.370 249.392, 152.858 246.211, 150.250 245.378 C 146.029 244.029, 143.530 242.312, 142.069 239.756 C 140.010 236.156, 139.515 236.264, 136.381 241 M 126.683 250.650 C 126.308 251.026, 126 252.421, 126 253.750 C 126 256.518, 128.300 256.365, 128.844 253.561 C 129.227 251.585, 127.745 249.588, 126.683 250.650 M 129.227 268.004 C 131.160 271.117, 148 270.735, 148 267.578 C 148 266.626, 145.395 266.247, 137.977 266.123 C 128.108 265.957, 127.974 265.986, 129.227 268.004"/><path fill="#20419A" fill-rule="evenodd" d="M 303.685 51.648 C 303.328 52.005, 303.314 53.404, 303.654 54.758 C 304.385 57.669, 298.714 57.183, 296.201 54.119 C 295.104 52.780, 294.776 52.742, 294.303 53.902 C 292.841 57.491, 284.585 63.848, 282.698 62.839 C 281.670 62.288, 280.571 62.096, 280.256 62.410 C 279.942 62.725, 279.069 62.472, 278.318 61.849 C 276.430 60.282, 275.777 61.264, 276.580 64.462 C 276.952 65.946, 278.324 67.646, 279.628 68.240 C 280.933 68.835, 282 69.699, 282 70.161 C 282 71.880, 276.160 70.919, 272.816 68.650 L 269.353 66.300 266.769 68.522 C 265.330 69.760, 262.039 71.064, 259.342 71.465 C 253.238 72.373, 249 76.663, 249 81.934 C 249 83.518, 248.358 84.003, 246.250 84.015 C 244.738 84.023, 241.604 84.690, 239.286 85.497 C 236.969 86.305, 234.381 86.700, 233.536 86.376 C 231.725 85.681, 231.503 87.103, 233.164 88.764 C 234.049 89.649, 233.483 89.790, 230.801 89.355 C 225.951 88.568, 223.127 90.214, 223.748 93.465 C 224.267 96.179, 224.032 96.287, 218 96.087 L 214.500 95.971 217.250 97.517 C 220.593 99.397, 220.597 99.517, 218 120.500 C 215.455 141.061, 215.455 143.643, 218 145.232 C 219.100 145.919, 220.014 147.160, 220.031 147.991 C 220.093 150.962, 225 153.545, 225 150.606 C 225 149.237, 224.528 147.826, 223.951 147.470 C 223.305 147.071, 223.253 146.376, 223.815 145.661 C 225.126 143.993, 224.920 140.813, 223.353 138.527 C 221.058 135.181, 221.639 133.328, 224.250 135.668 C 227.151 138.268, 235.827 143, 237.693 143 C 239.471 143, 238.625 139.759, 235.801 135.750 C 233.778 132.877, 234.288 132.370, 238.663 132.905 C 239.384 132.994, 239.607 132.215, 239.252 130.855 C 238.794 129.103, 239.012 128.797, 240.339 129.331 C 241.253 129.699, 242.727 130.293, 243.615 130.651 C 244.911 131.174, 245.093 130.869, 244.536 129.112 C 243.913 127.149, 244.111 126.990, 246.452 127.577 C 251.828 128.927, 252.520 128.691, 252.192 125.621 C 251.943 123.293, 252.200 122.863, 253.535 123.375 C 254.443 123.723, 256.381 124.280, 257.843 124.612 L 260.500 125.216 258 123.365 C 256.625 122.347, 255.056 121.511, 254.514 121.507 C 253.971 121.503, 253.376 120.713, 253.190 119.750 C 252.985 118.682, 253.467 118, 254.427 118 C 256.815 118, 256.309 116.462, 253.500 115.182 C 250.752 113.930, 250.012 109.388, 252.200 107.200 C 254.360 105.040, 265 105.646, 265 107.929 C 265 110.916, 267.896 113.243, 270.729 112.532 C 274.244 111.650, 277.175 108.620, 276.420 106.651 C 275.630 104.592, 274.122 104.518, 273.362 106.500 C 272.398 109.011, 270.377 108.219, 264.899 103.181 C 259.253 97.990, 258.567 94.131, 263.975 97.982 C 269.227 101.722, 274.477 99.810, 273.235 94.608 C 272.853 93.005, 273.838 93.564, 277.345 96.938 C 281.198 100.644, 285.799 102.399, 282.183 98.783 C 281.533 98.133, 280.991 96.903, 280.980 96.050 C 280.969 95.198, 278.719 93.169, 275.980 91.543 C 273.241 89.917, 271 88.005, 271 87.293 C 271 85.625, 272.854 85.702, 276 87.500 C 278.895 89.155, 282.571 89.647, 280.029 88.039 C 276.947 86.090, 280.323 85.662, 286.250 87.250 C 293.556 89.208, 295.609 87.036, 288.646 84.715 C 287.953 84.484, 288.163 83.152, 289.243 80.929 C 290.167 79.028, 290.484 77.351, 289.955 77.167 C 289.430 76.983, 289 76.342, 289 75.742 C 289 75.142, 290.123 75.707, 291.496 76.996 C 294.548 79.864, 295.872 78.979, 293.635 75.566 C 291.290 71.986, 291.267 72, 299.500 72 C 303.625 72, 306.986 71.662, 306.968 71.250 C 306.880 69.173, 303.962 67, 301.262 67 C 299.603 67, 297.685 66.325, 297 65.500 C 296.315 64.675, 296.125 64, 296.578 64 C 297.030 64, 296.860 63.460, 296.200 62.800 C 293.161 59.761, 295.590 59.091, 299.092 62.003 C 307.348 68.867, 308.876 70, 309.882 70 C 311.723 70, 311.148 66.787, 308.873 64.365 C 307.670 63.084, 307.005 61.429, 307.342 60.551 C 308.103 58.567, 310 58.531, 310 60.500 C 310 61.433, 310.944 62, 312.500 62 C 313.875 62, 315 61.502, 315 60.893 C 315 60.284, 315.675 60.045, 316.500 60.362 C 317.419 60.714, 318 60.361, 318 59.450 C 318 58.385, 317.328 58.131, 315.636 58.555 C 313.296 59.143, 311.317 56.915, 312.490 55.016 C 313.275 53.746, 304.820 50.513, 303.685 51.648 M 322.200 53.200 C 318.973 56.427, 322.741 58.432, 326.559 55.519 C 328.239 54.237, 328.298 53.903, 327 53.034 C 325.007 51.701, 323.653 51.747, 322.200 53.200 M 203 109.416 C 203 110.598, 202.289 110.808, 199.899 110.330 C 197.780 109.906, 196.523 110.151, 195.929 111.105 C 195.204 112.271, 194.711 112.283, 192.933 111.181 C 191.763 110.455, 190.549 110.118, 190.236 110.431 C 189.923 110.744, 189.999 111, 190.406 111 C 190.812 111, 190.244 112.146, 189.143 113.546 C 187.268 115.929, 187.238 116.324, 188.668 119.748 C 191.577 126.709, 186.148 135.305, 179.950 133.552 C 178.878 133.248, 177.100 132.745, 176 132.433 C 174.169 131.913, 174 132.343, 174 137.510 C 174 149.136, 183.676 152.584, 190.818 143.504 L 192.814 140.967 195.830 143.984 C 198.061 146.214, 199.778 147, 202.423 147 C 206.298 147, 207.228 145.525, 203.999 144.500 C 200.742 143.466, 199.375 140, 202.224 140 C 206.599 140, 207.237 136.690, 203.447 133.665 C 195.620 127.420, 198.915 112, 208.077 112 C 209.159 112, 210 111.312, 210 110.428 C 210 109.379, 209.252 108.953, 207.750 109.148 C 206.512 109.307, 204.938 109.088, 204.250 108.660 C 203.455 108.165, 203 108.440, 203 109.416 M 148.250 130.449 C 145.818 131.557, 145.422 132.525, 147 133.500 C 148.511 134.434, 148.198 136, 146.500 136 C 142.295 136, 148.751 145.106, 154.763 147.654 C 161.117 150.348, 166 145.185, 166 135.771 C 166 131.632, 160.901 130.829, 158.700 134.622 C 157.702 136.342, 156.019 136.420, 155.945 134.750 C 155.832 132.215, 150.686 129.339, 148.250 130.449 M 141.200 142.200 C 139.820 143.580, 139.594 146, 140.845 146 C 141.813 146, 145 142.680, 145 141.671 C 145 140.564, 142.487 140.913, 141.200 142.200 M 214.667 151.667 C 214.300 152.033, 214.018 153.946, 214.040 155.917 L 214.080 159.500 216.040 155.571 C 218.303 151.036, 217.521 148.813, 214.667 151.667 M 121.235 157.838 C 120.281 159.399, 118.979 160.500, 118.342 160.285 C 117.705 160.070, 116.890 160.368, 116.533 160.947 C 116.175 161.526, 115.064 162, 114.063 162 C 113.063 162, 111.685 162.675, 111 163.500 C 110.315 164.325, 108.910 165, 107.878 165 C 106.545 165, 106 165.721, 106 167.481 C 106 169.293, 105.326 170.131, 103.500 170.589 C 102.125 170.934, 101 171.843, 101 172.608 C 101 173.374, 100.587 174, 100.083 174 C 99.578 174, 98.394 176.019, 97.452 178.486 C 96.510 180.953, 95.123 183.483, 94.370 184.108 C 92.538 185.629, 92.623 189.918, 94.500 190.638 C 95.325 190.955, 96 191.827, 96 192.576 C 96 193.438, 95.386 193.702, 94.326 193.295 C 93.058 192.808, 92.808 193.058, 93.295 194.326 C 93.648 195.247, 93.501 196, 92.969 196 C 92.436 196, 91.993 195.438, 91.985 194.750 C 91.976 194.063, 91.526 192.825, 90.985 192 C 88.973 188.936, 88.108 192.999, 89.659 198.224 C 90.815 202.115, 90.866 203.457, 89.904 204.616 C 88.923 205.798, 89.106 206.652, 90.843 209.001 C 92.029 210.606, 93 212.612, 93 213.460 C 93 214.307, 93.620 215, 94.378 215 C 96.074 215, 98.530 217.803, 97.626 218.707 C 97.263 219.070, 96.434 218.834, 95.783 218.183 C 93.699 216.099, 93.110 216.913, 94.576 219.851 C 97.201 225.113, 102.819 222.172, 102.212 215.853 C 101.801 211.581, 102.067 210.779, 104.800 208.046 C 111.460 201.386, 121.066 207.482, 119.381 217.299 C 119.025 219.374, 119.153 220.049, 119.746 219.216 C 120.249 218.510, 121.299 218.173, 122.080 218.467 C 122.943 218.792, 124.405 217.669, 125.808 215.605 L 128.115 212.208 124.404 208.604 C 120.392 204.707, 120.597 203.751, 124.745 207.014 C 126.153 208.122, 127.573 208.760, 127.901 208.432 C 128.229 208.105, 127.794 207.311, 126.935 206.668 C 125.808 205.825, 125.491 204.306, 125.796 201.203 C 126.267 196.418, 127.743 196.095, 129.805 200.324 C 131.370 203.534, 133.044 203.882, 132.246 200.831 C 131.830 199.241, 132.055 198.803, 133.089 199.190 C 141.429 202.308, 142.110 202.441, 142.930 201.114 C 143.504 200.185, 143.955 200.118, 144.434 200.893 C 145.991 203.413, 148.038 202.052, 147.477 198.870 C 147.101 196.737, 147.455 195.155, 148.588 193.903 C 149.531 192.861, 150.021 191.187, 149.720 190.036 C 149.235 188.182, 149.526 188.060, 153.094 188.631 C 156.594 189.191, 157 189.037, 157 187.155 C 157 185.133, 156.472 185.045, 142.750 184.777 L 128.500 184.500 127.821 178 C 127.447 174.425, 126.881 169.144, 126.564 166.264 L 125.986 161.029 156.660 160.764 C 180.119 160.562, 187.432 160.206, 187.750 159.250 C 188.077 158.268, 181.527 158, 157.190 158 C 130.578 158, 126.133 157.789, 125.638 156.500 C 124.760 154.211, 123.154 154.699, 121.235 157.838 M 193 159.500 C 193 160.667, 194.333 161, 199 161 C 204.742 161, 206.779 159.897, 203.418 158.607 C 200.086 157.328, 193 157.936, 193 159.500"/><path fill="#FFE01E" fill-rule="evenodd" d="M 3.123 97.572 C -0.045 98.921, -0.218 99.242, 0.321 102.755 C 0.637 104.815, 2.061 117.075, 3.486 130 C 4.911 142.925, 6.293 154.512, 6.558 155.750 L 7.038 158 51.519 158 C 92.856 158, 96 157.879, 96 156.286 C 96 155.344, 97.387 142.202, 99.083 127.083 C 102.501 96.597, 102.545 97, 95.844 97 C 92.325 97, 91 99.403, 91 105.782 C 91 110.511, 90.856 110.761, 87.172 112.423 C 76.029 117.447, 79.269 136.971, 91.250 136.996 C 93.487 137.001, 93.447 137.754, 90.999 141.770 C 87.264 147.895, 81.229 148.508, 76.839 143.207 L 74.526 140.414 70.918 144.207 C 64.924 150.508, 58.190 149.321, 56.023 141.581 C 54.232 135.185, 55.232 131.693, 58.436 133.153 C 59.783 133.767, 62.412 133.958, 64.395 133.586 C 74.025 131.779, 73.339 116.247, 63.484 112.995 C 60.084 111.873, 60 111.716, 60 106.511 C 60 101.783, 59.651 100.884, 56.923 98.589 C 49.714 92.523, 40.710 98.665, 42.315 108.554 C 42.742 111.188, 42.524 112, 41.387 112 C 32.606 112, 27.694 124.848, 34.046 131.200 C 37.124 134.278, 39.898 134.595, 45.250 132.478 C 46.765 131.879, 47 132.411, 47 136.443 C 47 147.910, 39.484 151.719, 31.874 144.109 L 27.982 140.218 24.591 143.609 C 20.138 148.062, 17.106 148.024, 13.104 143.465 C 9.223 139.046, 9.188 137.337, 12.958 136.509 C 24.189 134.043, 25.795 117.490, 15.289 112.500 C 11.475 110.689, 11.123 110.217, 11.562 107.500 C 12.790 99.892, 8.773 95.165, 3.123 97.572 M 164.077 98.589 C 161.350 100.884, 161 101.783, 161 106.509 C 161 111.610, 160.871 111.869, 158.027 112.494 C 152.021 113.813, 147.592 122.350, 150.178 127.624 C 152.569 132.500, 156.250 134.434, 160.895 133.255 C 165.582 132.065, 166.685 133.535, 165.569 139.485 C 163.841 148.693, 156.430 150.880, 149.968 144.088 L 146.247 140.175 144.104 143.073 C 140.071 148.528, 133.766 147.945, 130.001 141.770 C 127.553 137.754, 127.513 137.001, 129.750 136.996 C 141.643 136.971, 145.059 117.259, 134.015 112.387 C 130.170 110.690, 130 110.421, 130 106.030 C 130 98.414, 125.486 94.731, 120.563 98.330 C 118.813 99.610, 118.862 100.709, 121.872 127.647 C 123.593 143.040, 125 156.167, 125 156.817 C 125 157.710, 135.903 158, 169.439 158 L 213.877 158 214.499 153.750 C 214.841 151.412, 216.361 138.330, 217.877 124.678 L 220.632 99.856 218.594 98.428 C 213.257 94.690, 209.538 97.720, 209.418 105.903 C 209.350 110.590, 209.024 111.560, 207.418 111.867 C 195.347 114.175, 195.981 134.246, 208.202 136.690 C 211.431 137.336, 211.683 138.565, 209.296 142.027 C 205.020 148.232, 200.695 148.647, 195.548 143.347 C 193.597 141.337, 192 140.178, 192 140.770 C 192 146.713, 179.883 150.209, 176.073 145.365 C 172.672 141.042, 173.045 131.687, 176.565 133.025 C 180.690 134.593, 183.695 134.166, 186.694 131.587 C 192.763 126.366, 189.054 114.269, 180.830 112.463 C 178.161 111.876, 177.990 111.570, 178.581 108.421 C 180.400 98.725, 171.270 92.536, 164.077 98.589 M 32.743 160.767 L 6.986 161.033 7.564 166.267 C 7.882 169.145, 8.447 174.425, 8.821 178 L 9.500 184.500 51.129 184.761 L 92.759 185.022 94.003 173.468 C 94.688 167.114, 95.062 161.729, 94.835 161.502 C 94.195 160.861, 61.259 160.471, 32.743 160.767 M 126 162.964 C 126 164.044, 126.514 169.444, 127.141 174.964 L 128.282 185 169.574 185 C 208.047 185, 210.898 184.881, 211.352 183.250 C 211.620 182.287, 212.125 178.350, 212.474 174.500 C 212.823 170.650, 213.360 166.037, 213.666 164.250 L 214.223 161 170.111 161 C 126.935 161, 126 161.042, 126 162.964 M 107.445 205.727 C 103.051 207.946, 102 209.846, 102 215.566 C 102 220.537, 101.876 220.775, 98.970 221.356 C 86.319 223.886, 88.112 243.012, 100.885 241.785 C 106.731 241.223, 107.868 243.062, 105.989 250.040 C 103.880 257.872, 97.595 258.864, 90.940 252.415 L 87.381 248.966 84.940 251.589 C 81.655 255.121, 78.559 256.212, 75.622 254.874 C 72.981 253.670, 68.152 246, 70.035 246 C 82.571 246, 86.337 225.144, 74.569 220.889 C 71.101 219.635, 71 219.451, 71 214.410 C 71 205.985, 67.065 203.017, 61.062 206.916 C 59.716 207.791, 65.001 263.542, 66.692 266.304 C 66.963 266.746, 86.940 266.993, 111.085 266.852 L 154.985 266.597 155.449 263.548 C 155.923 260.427, 156.584 254.971, 157.452 247 C 159.928 224.267, 161.106 214.006, 161.557 211.255 C 162.039 208.312, 161.757 207.852, 158.519 206.308 C 153.297 203.818, 150.477 206.715, 150.552 214.494 C 150.602 219.638, 150.456 219.961, 147.829 220.538 C 135.707 223.200, 137.513 243.153, 150.104 245.671 C 152.846 246.219, 152.887 246.318, 151.485 249.030 C 147.749 256.254, 142.411 257.611, 137.409 252.609 L 134.018 249.218 130.126 253.109 C 122.377 260.858, 115 256.798, 115 244.783 C 115 241.150, 115.163 240.923, 117.250 241.665 C 127.157 245.187, 134.403 236.481, 129.483 226.967 C 127.992 224.083, 123.452 221, 120.696 221 C 119.626 221, 119.401 219.874, 119.745 216.250 C 120.511 208.196, 113.846 202.494, 107.445 205.727 M 67 271.464 C 67 272.819, 67.514 278.444, 68.141 283.964 L 69.282 294 110.622 294 L 151.962 294 152.428 291.750 C 152.685 290.512, 153.161 286.800, 153.487 283.500 C 153.813 280.200, 154.338 275.587, 154.653 273.250 L 155.227 269 111.114 269 L 67 269 67 271.464"/></g>
</svg>
